mtllib applicationcomponent.mtl

v  -51.709849 10.210054 -7.500000
v  -51.709849 10.210054 -7.500000
v  -51.709849 10.210054 -7.500000
v  -51.709849 -12.407154 -7.500000
v  -51.709849 -12.407154 -7.500000
v  -51.709849 -12.407154 -7.500000
v  -29.005324 -12.407154 -7.500000
v  -29.005324 -12.407154 -7.500000
v  -29.005324 -12.407154 -7.500000
v  -29.005324 -34.055052 -7.500000
v  -29.005324 -34.055052 -7.500000
v  -29.005324 -34.055052 -7.500000
v  -51.709849 -34.055052 -7.500000
v  -51.709849 -34.055052 -7.500000
v  -51.709849 -34.055052 -7.500000
v  -51.709849 -50.000000 -7.500000
v  -51.709849 -50.000000 -7.500000
v  -51.709849 -50.000000 -7.500000
v  75.000000 -50.000000 -7.500000
v  75.000000 -50.000000 -7.500000
v  75.000000 -50.000000 -7.500000
v  75.000000 50.000000 -7.500000
v  75.000000 50.000000 -7.500000
v  75.000000 50.000000 -7.500000
v  -51.709849 50.000000 -7.500000
v  -51.709849 50.000000 -7.500000
v  -51.709849 50.000000 -7.500000
v  -51.709849 31.857952 -7.500000
v  -51.709849 31.857952 -7.500000
v  -51.709849 31.857952 -7.500000
v  -29.005324 31.857952 -7.500000
v  -29.005324 31.857952 -7.500000
v  -29.005324 31.857952 -7.500000
v  -29.005324 10.210054 -7.500000
v  -29.005324 10.210054 -7.500000
v  -29.005324 10.210054 -7.500000
v  -51.709849 10.210054 7.500000
v  -51.709849 10.210054 7.500000
v  -51.709849 10.210054 7.500000
v  -29.005324 10.210054 7.500000
v  -29.005324 10.210054 7.500000
v  -29.005324 10.210054 7.500000
v  -29.005324 31.857952 7.500000
v  -29.005324 31.857952 7.500000
v  -29.005324 31.857952 7.500000
v  -51.709849 31.857952 7.500000
v  -51.709849 31.857952 7.500000
v  -51.709849 31.857952 7.500000
v  -51.709849 50.000000 7.500000
v  -51.709849 50.000000 7.500000
v  -51.709849 50.000000 7.500000
v  75.000000 50.000000 7.500000
v  75.000000 50.000000 7.500000
v  75.000000 50.000000 7.500000
v  75.000000 -50.000000 7.500000
v  75.000000 -50.000000 7.500000
v  75.000000 -50.000000 7.500000
v  -51.709849 -50.000000 7.500000
v  -51.709849 -50.000000 7.500000
v  -51.709849 -50.000000 7.500000
v  -51.709849 -34.055052 7.500000
v  -51.709849 -34.055052 7.500000
v  -51.709849 -34.055052 7.500000
v  -29.005324 -34.055052 7.500000
v  -29.005324 -34.055052 7.500000
v  -29.005324 -34.055052 7.500000
v  -29.005324 -12.407154 7.500000
v  -29.005324 -12.407154 7.500000
v  -29.005324 -12.407154 7.500000
v  -51.709849 -12.407154 7.500000
v  -51.709849 -12.407154 7.500000
v  -51.709849 -12.407154 7.500000
v  -75.000000 31.857952 -9.450000
v  -75.000000 31.857952 -9.450000
v  -75.000000 31.857952 -9.450000
v  -75.000000 10.210054 -9.450000
v  -75.000000 10.210054 -9.450000
v  -75.000000 10.210054 -9.450000
v  -29.005324 10.210054 -9.450000
v  -29.005324 10.210054 -9.450000
v  -29.005324 10.210054 -9.450000
v  -29.005324 31.857952 -9.450000
v  -29.005324 31.857952 -9.450000
v  -29.005324 31.857952 -9.450000
v  -75.323103 -12.407154 -9.450000
v  -75.323103 -12.407154 -9.450000
v  -75.323103 -12.407154 -9.450000
v  -75.323103 -34.055052 -9.450000
v  -75.323103 -34.055052 -9.450000
v  -75.323103 -34.055052 -9.450000
v  -29.005324 -34.055052 -9.450000
v  -29.005324 -34.055052 -9.450000
v  -29.005324 -34.055052 -9.450000
v  -29.005324 -12.407154 -9.450000
v  -29.005324 -12.407154 -9.450000
v  -29.005324 -12.407154 -9.450000
v  -75.000000 31.857952 9.450000
v  -75.000000 31.857952 9.450000
v  -75.000000 31.857952 9.450000
v  -29.005324 31.857952 9.450000
v  -29.005324 31.857952 9.450000
v  -29.005324 31.857952 9.450000
v  -29.005324 10.210054 9.450000
v  -29.005324 10.210054 9.450000
v  -29.005324 10.210054 9.450000
v  -75.000000 10.210054 9.450000
v  -75.000000 10.210054 9.450000
v  -75.000000 10.210054 9.450000
v  -75.323103 -12.407154 9.450000
v  -75.323103 -12.407154 9.450000
v  -75.323103 -12.407154 9.450000
v  -29.005324 -12.407154 9.450000
v  -29.005324 -12.407154 9.450000
v  -29.005324 -12.407154 9.450000
v  -29.005324 -34.055052 9.450000
v  -29.005324 -34.055052 9.450000
v  -29.005324 -34.055052 9.450000
v  -75.323103 -34.055052 9.450000
v  -75.323103 -34.055052 9.450000
v  -75.323103 -34.055052 9.450000

vt  0.157083 0.602101 0.000000
vt  0.157083 0.602101 0.000000
vt  0.157083 0.602101 0.000000
vt  0.157083 0.375928 0.000000
vt  0.157083 0.375928 0.000000
vt  0.157083 0.375928 0.000000
vt  0.308121 0.375928 0.000000
vt  0.308121 0.375928 0.000000
vt  0.308121 0.375928 0.000000
vt  0.308121 0.159449 0.000000
vt  0.308121 0.159449 0.000000
vt  0.308121 0.159449 0.000000
vt  0.157083 0.159449 0.000000
vt  0.157083 0.159449 0.000000
vt  0.157083 0.159449 0.000000
vt  0.157083 0.000000 0.000000
vt  0.157083 0.000000 0.000000
vt  0.157083 0.000000 0.000000
vt  1.000000 0.000000 0.000000
vt  1.000000 0.000000 0.000000
vt  1.000000 0.000000 0.000000
vt  1.000000 1.000000 0.000000
vt  1.000000 1.000000 0.000000
vt  1.000000 1.000000 0.000000
vt  0.157083 1.000000 0.000000
vt  0.157083 1.000000 0.000000
vt  0.157083 1.000000 0.000000
vt  0.157083 0.818580 0.000000
vt  0.157083 0.818580 0.000000
vt  0.157083 0.818580 0.000000
vt  0.308121 0.818580 0.000000
vt  0.308121 0.818580 0.000000
vt  0.308121 0.818580 0.000000
vt  0.308121 0.602101 0.000000
vt  0.308121 0.602101 0.000000
vt  0.308121 0.602101 0.000000
vt  0.157083 0.602101 0.000000
vt  0.157083 0.602101 0.000000
vt  0.157083 0.602101 0.000000
vt  0.308121 0.602101 0.000000
vt  0.308121 0.602101 0.000000
vt  0.308121 0.602101 0.000000
vt  0.308121 0.818580 0.000000
vt  0.308121 0.818580 0.000000
vt  0.308121 0.818580 0.000000
vt  0.157083 0.818580 0.000000
vt  0.157083 0.818580 0.000000
vt  0.157083 0.818580 0.000000
vt  0.157083 1.000000 0.000000
vt  0.157083 1.000000 0.000000
vt  0.157083 1.000000 0.000000
vt  1.000000 1.000000 0.000000
vt  1.000000 1.000000 0.000000
vt  1.000000 1.000000 0.000000
vt  1.000000 0.000000 0.000000
vt  1.000000 0.000000 0.000000
vt  1.000000 0.000000 0.000000
vt  0.157083 0.000000 0.000000
vt  0.157083 0.000000 0.000000
vt  0.157083 0.000000 0.000000
vt  0.157083 0.159449 0.000000
vt  0.157083 0.159449 0.000000
vt  0.157083 0.159449 0.000000
vt  0.308121 0.159449 0.000000
vt  0.308121 0.159449 0.000000
vt  0.308121 0.159449 0.000000
vt  0.308121 0.375928 0.000000
vt  0.308121 0.375928 0.000000
vt  0.308121 0.375928 0.000000
vt  0.157083 0.375928 0.000000
vt  0.157083 0.375928 0.000000
vt  0.157083 0.375928 0.000000
vt  0.002149 0.818580 0.000000
vt  0.002149 0.818580 0.000000
vt  0.002149 0.818580 0.000000
vt  0.002149 0.602101 0.000000
vt  0.002149 0.602101 0.000000
vt  0.002149 0.602101 0.000000
vt  0.308121 0.602101 0.000000
vt  0.308121 0.602101 0.000000
vt  0.308121 0.602101 0.000000
vt  0.308121 0.818580 0.000000
vt  0.308121 0.818580 0.000000
vt  0.308121 0.818580 0.000000
vt  0.000000 0.375928 0.000000
vt  0.000000 0.375928 0.000000
vt  0.000000 0.375928 0.000000
vt  0.000000 0.159449 0.000000
vt  0.000000 0.159449 0.000000
vt  0.000000 0.159449 0.000000
vt  0.308121 0.159449 0.000000
vt  0.308121 0.159449 0.000000
vt  0.308121 0.159449 0.000000
vt  0.308121 0.375928 0.000000
vt  0.308121 0.375928 0.000000
vt  0.308121 0.375928 0.000000
vt  0.002149 0.818580 0.000000
vt  0.002149 0.818580 0.000000
vt  0.002149 0.818580 0.000000
vt  0.308121 0.818580 0.000000
vt  0.308121 0.818580 0.000000
vt  0.308121 0.818580 0.000000
vt  0.308121 0.602101 0.000000
vt  0.308121 0.602101 0.000000
vt  0.308121 0.602101 0.000000
vt  0.002149 0.602101 0.000000
vt  0.002149 0.602101 0.000000
vt  0.002149 0.602101 0.000000
vt  0.000000 0.375928 0.000000
vt  0.000000 0.375928 0.000000
vt  0.000000 0.375928 0.000000
vt  0.308121 0.375928 0.000000
vt  0.308121 0.375928 0.000000
vt  0.308121 0.375928 0.000000
vt  0.308121 0.159449 0.000000
vt  0.308121 0.159449 0.000000
vt  0.308121 0.159449 0.000000
vt  0.000000 0.159449 0.000000
vt  0.000000 0.159449 0.000000
vt  0.000000 0.159449 0.000000

vn  0.000000 0.000000 -1.000000
vn  -1.000000 0.000000 0.000000
vn  0.000000 -1.000000 0.000000
vn  0.000000 0.000000 -1.000000
vn  -1.000000 0.000000 0.000000
vn  0.000000 1.000000 0.000000
vn  0.000000 0.000000 -1.000000
vn  1.000000 0.000000 0.000000
vn  0.000000 1.000000 0.000000
vn  0.000000 0.000000 -1.000000
vn  0.000000 -1.000000 0.000000
vn  1.000000 0.000000 0.000000
vn  0.000000 0.000000 -1.000000
vn  -1.000000 0.000000 0.000000
vn  0.000000 -1.000000 0.000000
vn  0.000000 0.000000 -1.000000
vn  -1.000000 0.000000 0.000000
vn  0.000000 -1.000000 0.000000
vn  0.000000 0.000000 -1.000000
vn  0.000000 -1.000000 0.000000
vn  1.000000 0.000000 0.000000
vn  0.000000 0.000000 -1.000000
vn  0.000000 1.000000 0.000000
vn  1.000000 0.000000 0.000000
vn  0.000000 0.000000 -1.000000
vn  0.000000 1.000000 0.000000
vn  -1.000000 0.000000 0.000000
vn  0.000000 0.000000 -1.000000
vn  -1.000000 0.000000 0.000000
vn  0.000000 1.000000 0.000000
vn  0.000000 0.000000 -1.000000
vn  1.000000 0.000000 0.000000
vn  0.000000 1.000000 0.000000
vn  0.000000 0.000000 -1.000000
vn  0.000000 -1.000000 0.000000
vn  1.000000 0.000000 0.000000
vn  0.000000 0.000000 1.000000
vn  -1.000000 0.000000 0.000000
vn  0.000000 -1.000000 0.000000
vn  0.000000 0.000000 1.000000
vn  0.000000 -1.000000 0.000000
vn  1.000000 0.000000 0.000000
vn  0.000000 0.000000 1.000000
vn  1.000000 0.000000 0.000000
vn  0.000000 1.000000 0.000000
vn  0.000000 0.000000 1.000000
vn  -1.000000 0.000000 0.000000
vn  0.000000 1.000000 0.000000
vn  0.000000 0.000000 1.000000
vn  0.000000 1.000000 0.000000
vn  -1.000000 0.000000 0.000000
vn  0.000000 0.000000 1.000000
vn  0.000000 1.000000 0.000000
vn  1.000000 0.000000 0.000000
vn  0.000000 0.000000 1.000000
vn  0.000000 -1.000000 0.000000
vn  1.000000 0.000000 0.000000
vn  0.000000 0.000000 1.000000
vn  -1.000000 0.000000 0.000000
vn  0.000000 -1.000000 0.000000
vn  0.000000 0.000000 1.000000
vn  -1.000000 0.000000 0.000000
vn  0.000000 -1.000000 0.000000
vn  0.000000 0.000000 1.000000
vn  0.000000 -1.000000 0.000000
vn  1.000000 0.000000 0.000000
vn  0.000000 0.000000 1.000000
vn  1.000000 0.000000 0.000000
vn  0.000000 1.000000 0.000000
vn  0.000000 0.000000 1.000000
vn  -1.000000 0.000000 0.000000
vn  0.000000 1.000000 0.000000
vn  0.000000 0.000000 -1.000000
vn  -1.000000 0.000000 0.000000
vn  0.000000 1.000000 0.000000
vn  0.000000 0.000000 -1.000000
vn  -1.000000 0.000000 0.000000
vn  0.000000 -1.000000 0.000000
vn  0.000000 0.000000 -1.000000
vn  0.000000 -1.000000 0.000000
vn  1.000000 0.000000 0.000000
vn  0.000000 0.000000 -1.000000
vn  1.000000 0.000000 0.000000
vn  0.000000 1.000000 0.000000
vn  0.000000 0.000000 -1.000000
vn  -1.000000 0.000000 0.000000
vn  0.000000 1.000000 0.000000
vn  0.000000 0.000000 -1.000000
vn  -1.000000 0.000000 0.000000
vn  0.000000 -1.000000 0.000000
vn  0.000000 0.000000 -1.000000
vn  0.000000 -1.000000 0.000000
vn  1.000000 0.000000 0.000000
vn  0.000000 0.000000 -1.000000
vn  1.000000 0.000000 0.000000
vn  0.000000 1.000000 0.000000
vn  0.000000 0.000000 1.000000
vn  -1.000000 0.000000 0.000000
vn  0.000000 1.000000 0.000000
vn  0.000000 0.000000 1.000000
vn  1.000000 0.000000 0.000000
vn  0.000000 1.000000 0.000000
vn  0.000000 0.000000 1.000000
vn  0.000000 -1.000000 0.000000
vn  1.000000 0.000000 0.000000
vn  0.000000 0.000000 1.000000
vn  -1.000000 0.000000 0.000000
vn  0.000000 -1.000000 0.000000
vn  0.000000 0.000000 1.000000
vn  -1.000000 0.000000 0.000000
vn  0.000000 1.000000 0.000000
vn  0.000000 0.000000 1.000000
vn  1.000000 0.000000 0.000000
vn  0.000000 1.000000 0.000000
vn  0.000000 0.000000 1.000000
vn  0.000000 -1.000000 0.000000
vn  1.000000 0.000000 0.000000
vn  0.000000 0.000000 1.000000
vn  -1.000000 0.000000 0.000000
vn  0.000000 -1.000000 0.000000


g 0
g 1
usemtl DEFAULT_MTL
f 34/34/34  4/4/4  1/1/1
f 38/38/38  2/2/2  5/5/5
f 80/80/80  35/35/35  3/3/3
f 108/108/108  3/3/3  39/39/39
f 80/80/80  3/3/3  78/78/78
f 108/108/108  78/78/78  3/3/3
f 34/34/34  7/7/7  4/4/4
f 87/87/87  6/6/6  9/9/9
f 71/71/71  38/38/38  5/5/5
f 87/87/87  72/72/72  6/6/6
f 22/22/22  10/10/10  7/7/7
f 95/95/95  8/8/8  12/12/12
f 34/34/34  22/22/22  7/7/7
f 96/96/96  87/87/87  9/9/9
f 16/16/16  13/13/13  10/10/10
f 92/92/92  11/11/11  15/15/15
f 19/19/19  16/16/16  10/10/10
f 22/22/22  19/19/19  10/10/10
f 95/95/95  12/12/12  93/93/93
f 62/62/62  14/14/14  17/17/17
f 120/120/120  15/15/15  63/63/63
f 92/92/92  15/15/15  90/90/90
f 120/120/120  90/90/90  15/15/15
f 60/60/60  18/18/18  20/20/20
f 62/62/62  17/17/17  59/59/59
f 57/57/57  21/21/21  24/24/24
f 60/60/60  20/20/20  56/56/56
f 28/28/28  25/25/25  22/22/22
f 53/53/53  23/23/23  26/26/26
f 31/31/31  28/28/28  22/22/22
f 34/34/34  31/31/31  22/22/22
f 57/57/57  24/24/24  54/54/54
f 51/51/51  27/27/27  29/29/29
f 53/53/53  26/26/26  50/50/50
f 75/75/75  30/30/30  33/33/33
f 51/51/51  29/29/29  47/47/47
f 75/75/75  48/48/48  30/30/30
f 83/83/83  32/32/32  36/36/36
f 84/84/84  75/75/75  33/33/33
f 83/83/83  36/36/36  81/81/81
f 67/67/67  40/40/40  37/37/37
f 108/108/108  39/39/39  41/41/41
f 70/70/70  67/67/67  37/37/37
f 55/55/55  43/43/43  40/40/40
f 105/105/105  42/42/42  44/44/44
f 67/67/67  55/55/55  40/40/40
f 108/108/108  41/41/41  104/104/104
f 49/49/49  46/46/46  43/43/43
f 102/102/102  45/45/45  48/48/48
f 55/55/55  49/49/49  43/43/43
f 105/105/105  44/44/44  101/101/101
f 99/99/99  48/48/48  75/75/75
f 102/102/102  48/48/48  99/99/99
f 55/55/55  52/52/52  49/49/49
f 61/61/61  58/58/58  55/55/55
f 64/64/64  61/61/61  55/55/55
f 67/67/67  64/64/64  55/55/55
f 120/120/120  63/63/63  65/65/65
f 117/117/117  66/66/66  68/68/68
f 120/120/120  65/65/65  116/116/116
f 114/114/114  69/69/69  72/72/72
f 117/117/117  68/68/68  113/113/113
f 111/111/111  72/72/72  87/87/87
f 114/114/114  72/72/72  111/111/111
f 79/79/79  76/76/76  73/73/73
f 98/98/98  74/74/74  77/77/77
f 82/82/82  79/79/79  73/73/73
f 107/107/107  98/98/98  77/77/77
f 91/91/91  88/88/88  85/85/85
f 110/110/110  86/86/86  89/89/89
f 94/94/94  91/91/91  85/85/85
f 119/119/119  110/110/110  89/89/89
f 106/106/106  100/100/100  97/97/97
f 106/106/106  103/103/103  100/100/100
f 118/118/118  112/112/112  109/109/109
f 118/118/118  115/115/115  112/112/112
