mtllib businessintegration.mtl

v  -17.882040 119.867944 -7.500000
v  -17.882040 119.867944 -7.500000
v  -17.882040 119.867944 -7.500000
v  -34.944025 118.647414 -7.500000
v  -34.944025 118.647414 -7.500000
v  -51.657039 115.011028 -7.500000
v  -51.657039 115.011028 -7.500000
v  -67.682068 109.033053 -7.500000
v  -67.682068 109.033053 -7.500000
v  -82.692606 100.835487 -7.500000
v  -82.692606 100.835487 -7.500000
v  -96.383245 90.585423 -7.500000
v  -96.383245 90.585423 -7.500000
v  -108.475475 78.491666 -7.500000
v  -108.475475 78.491666 -7.500000
v  -118.723340 64.800485 -7.500000
v  -118.723340 64.800485 -7.500000
v  -126.918420 49.790596 -7.500000
v  -126.918420 49.790596 -7.500000
v  -132.894060 33.767506 -7.500000
v  -132.894060 33.767506 -7.500000
v  -136.528749 17.057295 -7.500000
v  -136.528749 17.057295 -7.500000
v  -137.748580 -0.000000 -7.500000
v  -137.748580 -0.000000 -7.500000
v  -136.528749 -17.057295 -7.500000
v  -136.528749 -17.057295 -7.500000
v  -132.894060 -33.767506 -7.500000
v  -132.894060 -33.767506 -7.500000
v  -126.918420 -49.790596 -7.500000
v  -126.918420 -49.790596 -7.500000
v  -118.723340 -64.800485 -7.500000
v  -118.723340 -64.800485 -7.500000
v  -108.475475 -78.491666 -7.500000
v  -108.475475 -78.491666 -7.500000
v  -96.383245 -90.585423 -7.500000
v  -96.383245 -90.585423 -7.500000
v  -82.692606 -100.835487 -7.500000
v  -82.692606 -100.835487 -7.500000
v  -67.682068 -109.033053 -7.500000
v  -67.682068 -109.033053 -7.500000
v  -51.657039 -115.011028 -7.500000
v  -51.657039 -115.011028 -7.500000
v  -34.944025 -118.647414 -7.500000
v  -34.944025 -118.647414 -7.500000
v  -17.882040 -119.867944 -7.500000
v  -17.882040 -119.867944 -7.500000
v  -17.882040 -119.867944 -7.500000
v  18.439532 119.867944 -7.500000
v  18.439532 119.867944 -7.500000
v  18.439532 119.867944 -7.500000
v  18.439532 -119.867944 -7.500000
v  18.439532 -119.867944 -7.500000
v  18.439532 -119.867944 -7.500000
v  35.501516 -118.647414 -7.500000
v  35.501516 -118.647414 -7.500000
v  52.214530 -115.011028 -7.500000
v  52.214530 -115.011028 -7.500000
v  68.239559 -109.033053 -7.500000
v  68.239559 -109.033053 -7.500000
v  83.250098 -100.835487 -7.500000
v  83.250098 -100.835487 -7.500000
v  96.940736 -90.585423 -7.500000
v  96.940736 -90.585423 -7.500000
v  109.032966 -78.491666 -7.500000
v  109.032966 -78.491666 -7.500000
v  119.280831 -64.800485 -7.500000
v  119.280831 -64.800485 -7.500000
v  127.475911 -49.790596 -7.500000
v  127.475911 -49.790596 -7.500000
v  133.451552 -33.767506 -7.500000
v  133.451552 -33.767506 -7.500000
v  137.086241 -17.057295 -7.500000
v  137.086241 -17.057295 -7.500000
v  138.306071 -0.000000 -7.500000
v  138.306071 -0.000000 -7.500000
v  137.086241 17.057295 -7.500000
v  137.086241 17.057295 -7.500000
v  133.451552 33.767506 -7.500000
v  133.451552 33.767506 -7.500000
v  127.475911 49.790596 -7.500000
v  127.475911 49.790596 -7.500000
v  119.280831 64.800485 -7.500000
v  119.280831 64.800485 -7.500000
v  109.032966 78.491666 -7.500000
v  109.032966 78.491666 -7.500000
v  96.940736 90.585423 -7.500000
v  96.940736 90.585423 -7.500000
v  83.250098 100.835487 -7.500000
v  83.250098 100.835487 -7.500000
v  68.239559 109.033053 -7.500000
v  68.239559 109.033053 -7.500000
v  52.214530 115.011028 -7.500000
v  52.214530 115.011028 -7.500000
v  35.501516 118.647414 -7.500000
v  35.501516 118.647414 -7.500000
v  -17.882040 119.867944 7.500000
v  -17.882040 119.867944 7.500000
v  -17.882040 119.867944 7.500000
v  -17.882040 -119.867944 7.500000
v  -17.882040 -119.867944 7.500000
v  -17.882040 -119.867944 7.500000
v  -34.944025 -118.647414 7.500000
v  -34.944025 -118.647414 7.500000
v  -51.657039 -115.011028 7.500000
v  -51.657039 -115.011028 7.500000
v  -67.682068 -109.033053 7.500000
v  -67.682068 -109.033053 7.500000
v  -82.692606 -100.835487 7.500000
v  -82.692606 -100.835487 7.500000
v  -96.383245 -90.585423 7.500000
v  -96.383245 -90.585423 7.500000
v  -108.475475 -78.491666 7.500000
v  -108.475475 -78.491666 7.500000
v  -118.723340 -64.800485 7.500000
v  -118.723340 -64.800485 7.500000
v  -126.918420 -49.790596 7.500000
v  -126.918420 -49.790596 7.500000
v  -132.894060 -33.767506 7.500000
v  -132.894060 -33.767506 7.500000
v  -136.528749 -17.057295 7.500000
v  -136.528749 -17.057295 7.500000
v  -137.748580 -0.000000 7.500000
v  -137.748580 -0.000000 7.500000
v  -136.528749 17.057295 7.500000
v  -136.528749 17.057295 7.500000
v  -132.894060 33.767506 7.500000
v  -132.894060 33.767506 7.500000
v  -126.918420 49.790596 7.500000
v  -126.918420 49.790596 7.500000
v  -118.723340 64.800485 7.500000
v  -118.723340 64.800485 7.500000
v  -108.475475 78.491666 7.500000
v  -108.475475 78.491666 7.500000
v  -96.383245 90.585423 7.500000
v  -96.383245 90.585423 7.500000
v  -82.692606 100.835487 7.500000
v  -82.692606 100.835487 7.500000
v  -67.682068 109.033053 7.500000
v  -67.682068 109.033053 7.500000
v  -51.657039 115.011028 7.500000
v  -51.657039 115.011028 7.500000
v  -34.944025 118.647414 7.500000
v  -34.944025 118.647414 7.500000
v  18.439532 119.867944 7.500000
v  18.439532 119.867944 7.500000
v  18.439532 119.867944 7.500000
v  35.501516 118.647414 7.500000
v  35.501516 118.647414 7.500000
v  52.214530 115.011028 7.500000
v  52.214530 115.011028 7.500000
v  68.239559 109.033053 7.500000
v  68.239559 109.033053 7.500000
v  83.250098 100.835487 7.500000
v  83.250098 100.835487 7.500000
v  96.940736 90.585423 7.500000
v  96.940736 90.585423 7.500000
v  109.032966 78.491666 7.500000
v  109.032966 78.491666 7.500000
v  119.280831 64.800485 7.500000
v  119.280831 64.800485 7.500000
v  127.475911 49.790596 7.500000
v  127.475911 49.790596 7.500000
v  133.451552 33.767506 7.500000
v  133.451552 33.767506 7.500000
v  137.086241 17.057295 7.500000
v  137.086241 17.057295 7.500000
v  138.306071 -0.000000 7.500000
v  138.306071 -0.000000 7.500000
v  137.086241 -17.057295 7.500000
v  137.086241 -17.057295 7.500000
v  133.451552 -33.767506 7.500000
v  133.451552 -33.767506 7.500000
v  127.475911 -49.790596 7.500000
v  127.475911 -49.790596 7.500000
v  119.280831 -64.800485 7.500000
v  119.280831 -64.800485 7.500000
v  109.032966 -78.491666 7.500000
v  109.032966 -78.491666 7.500000
v  96.940736 -90.585423 7.500000
v  96.940736 -90.585423 7.500000
v  83.250098 -100.835487 7.500000
v  83.250098 -100.835487 7.500000
v  68.239559 -109.033053 7.500000
v  68.239559 -109.033053 7.500000
v  52.214530 -115.011028 7.500000
v  52.214530 -115.011028 7.500000
v  35.501516 -118.647414 7.500000
v  35.501516 -118.647414 7.500000
v  18.439532 -119.867944 7.500000
v  18.439532 -119.867944 7.500000
v  18.439532 -119.867944 7.500000

vt  0.434213 1.000000 0.000000
vt  0.434213 1.000000 0.000000
vt  0.434213 1.000000 0.000000
vt  0.372407 0.994909 0.000000
vt  0.372407 0.994909 0.000000
vt  0.311864 0.979741 0.000000
vt  0.311864 0.979741 0.000000
vt  0.253814 0.954805 0.000000
vt  0.253814 0.954805 0.000000
vt  0.199439 0.920611 0.000000
vt  0.199439 0.920611 0.000000
vt  0.149845 0.877855 0.000000
vt  0.149845 0.877855 0.000000
vt  0.106041 0.827409 0.000000
vt  0.106041 0.827409 0.000000
vt  0.068918 0.770299 0.000000
vt  0.068918 0.770299 0.000000
vt  0.039232 0.707689 0.000000
vt  0.039232 0.707689 0.000000
vt  0.017585 0.640853 0.000000
vt  0.017585 0.640853 0.000000
vt  0.004419 0.571150 0.000000
vt  0.004419 0.571150 0.000000
vt  0.000000 0.500000 0.000000
vt  0.000000 0.500000 0.000000
vt  0.004419 0.428850 0.000000
vt  0.004419 0.428850 0.000000
vt  0.017585 0.359147 0.000000
vt  0.017585 0.359147 0.000000
vt  0.039232 0.292311 0.000000
vt  0.039232 0.292311 0.000000
vt  0.068918 0.229701 0.000000
vt  0.068918 0.229701 0.000000
vt  0.106041 0.172591 0.000000
vt  0.106041 0.172591 0.000000
vt  0.149845 0.122145 0.000000
vt  0.149845 0.122145 0.000000
vt  0.199439 0.079389 0.000000
vt  0.199439 0.079389 0.000000
vt  0.253814 0.045195 0.000000
vt  0.253814 0.045195 0.000000
vt  0.311864 0.020259 0.000000
vt  0.311864 0.020259 0.000000
vt  0.372407 0.005091 0.000000
vt  0.372407 0.005091 0.000000
vt  0.434213 0.000000 0.000000
vt  0.434213 0.000000 0.000000
vt  0.434213 0.000000 0.000000
vt  0.565787 1.000000 0.000000
vt  0.565787 1.000000 0.000000
vt  0.565787 1.000000 0.000000
vt  0.565787 0.000000 0.000000
vt  0.565787 0.000000 0.000000
vt  0.565787 0.000000 0.000000
vt  0.627593 0.005091 0.000000
vt  0.627593 0.005091 0.000000
vt  0.688136 0.020259 0.000000
vt  0.688136 0.020259 0.000000
vt  0.746186 0.045195 0.000000
vt  0.746186 0.045195 0.000000
vt  0.800561 0.079389 0.000000
vt  0.800561 0.079389 0.000000
vt  0.850155 0.122145 0.000000
vt  0.850155 0.122145 0.000000
vt  0.893959 0.172591 0.000000
vt  0.893959 0.172591 0.000000
vt  0.931082 0.229701 0.000000
vt  0.931082 0.229701 0.000000
vt  0.960768 0.292311 0.000000
vt  0.960768 0.292311 0.000000
vt  0.982415 0.359147 0.000000
vt  0.982415 0.359147 0.000000
vt  0.995581 0.428850 0.000000
vt  0.995581 0.428850 0.000000
vt  1.000000 0.500000 0.000000
vt  1.000000 0.500000 0.000000
vt  0.995581 0.571150 0.000000
vt  0.995581 0.571150 0.000000
vt  0.982415 0.640853 0.000000
vt  0.982415 0.640853 0.000000
vt  0.960768 0.707689 0.000000
vt  0.960768 0.707689 0.000000
vt  0.931082 0.770299 0.000000
vt  0.931082 0.770299 0.000000
vt  0.893959 0.827409 0.000000
vt  0.893959 0.827409 0.000000
vt  0.850155 0.877855 0.000000
vt  0.850155 0.877855 0.000000
vt  0.800561 0.920611 0.000000
vt  0.800561 0.920611 0.000000
vt  0.746186 0.954805 0.000000
vt  0.746186 0.954805 0.000000
vt  0.688136 0.979741 0.000000
vt  0.688136 0.979741 0.000000
vt  0.627593 0.994909 0.000000
vt  0.627593 0.994909 0.000000
vt  0.434213 1.000000 0.000000
vt  0.434213 1.000000 0.000000
vt  0.434213 1.000000 0.000000
vt  0.434213 0.000000 0.000000
vt  0.434213 0.000000 0.000000
vt  0.434213 0.000000 0.000000
vt  0.372407 0.005091 0.000000
vt  0.372407 0.005091 0.000000
vt  0.311864 0.020259 0.000000
vt  0.311864 0.020259 0.000000
vt  0.253814 0.045195 0.000000
vt  0.253814 0.045195 0.000000
vt  0.199439 0.079389 0.000000
vt  0.199439 0.079389 0.000000
vt  0.149845 0.122145 0.000000
vt  0.149845 0.122145 0.000000
vt  0.106041 0.172591 0.000000
vt  0.106041 0.172591 0.000000
vt  0.068918 0.229701 0.000000
vt  0.068918 0.229701 0.000000
vt  0.039232 0.292311 0.000000
vt  0.039232 0.292311 0.000000
vt  0.017585 0.359147 0.000000
vt  0.017585 0.359147 0.000000
vt  0.004419 0.428850 0.000000
vt  0.004419 0.428850 0.000000
vt  0.000000 0.500000 0.000000
vt  0.000000 0.500000 0.000000
vt  0.004419 0.571150 0.000000
vt  0.004419 0.571150 0.000000
vt  0.017585 0.640853 0.000000
vt  0.017585 0.640853 0.000000
vt  0.039232 0.707689 0.000000
vt  0.039232 0.707689 0.000000
vt  0.068918 0.770299 0.000000
vt  0.068918 0.770299 0.000000
vt  0.106041 0.827409 0.000000
vt  0.106041 0.827409 0.000000
vt  0.149845 0.877855 0.000000
vt  0.149845 0.877855 0.000000
vt  0.199439 0.920611 0.000000
vt  0.199439 0.920611 0.000000
vt  0.253814 0.954805 0.000000
vt  0.253814 0.954805 0.000000
vt  0.311864 0.979741 0.000000
vt  0.311864 0.979741 0.000000
vt  0.372407 0.994909 0.000000
vt  0.372407 0.994909 0.000000
vt  0.565787 1.000000 0.000000
vt  0.565787 1.000000 0.000000
vt  0.565787 1.000000 0.000000
vt  0.627593 0.994909 0.000000
vt  0.627593 0.994909 0.000000
vt  0.688136 0.979741 0.000000
vt  0.688136 0.979741 0.000000
vt  0.746186 0.954805 0.000000
vt  0.746186 0.954805 0.000000
vt  0.800561 0.920611 0.000000
vt  0.800561 0.920611 0.000000
vt  0.850155 0.877855 0.000000
vt  0.850155 0.877855 0.000000
vt  0.893959 0.827409 0.000000
vt  0.893959 0.827409 0.000000
vt  0.931082 0.770299 0.000000
vt  0.931082 0.770299 0.000000
vt  0.960768 0.707689 0.000000
vt  0.960768 0.707689 0.000000
vt  0.982415 0.640853 0.000000
vt  0.982415 0.640853 0.000000
vt  0.995581 0.571150 0.000000
vt  0.995581 0.571150 0.000000
vt  1.000000 0.500000 0.000000
vt  1.000000 0.500000 0.000000
vt  0.995581 0.428850 0.000000
vt  0.995581 0.428850 0.000000
vt  0.982415 0.359147 0.000000
vt  0.982415 0.359147 0.000000
vt  0.960768 0.292311 0.000000
vt  0.960768 0.292311 0.000000
vt  0.931082 0.229701 0.000000
vt  0.931082 0.229701 0.000000
vt  0.893959 0.172591 0.000000
vt  0.893959 0.172591 0.000000
vt  0.850155 0.122145 0.000000
vt  0.850155 0.122145 0.000000
vt  0.800561 0.079389 0.000000
vt  0.800561 0.079389 0.000000
vt  0.746186 0.045195 0.000000
vt  0.746186 0.045195 0.000000
vt  0.688136 0.020259 0.000000
vt  0.688136 0.020259 0.000000
vt  0.627593 0.005091 0.000000
vt  0.627593 0.005091 0.000000
vt  0.565787 0.000000 0.000000
vt  0.565787 0.000000 0.000000
vt  0.565787 0.000000 0.000000

vn  0.000000 0.000000 -1.000000
vn  -0.000000 1.000000 0.000000
vn  1.000000 0.000000 0.000000
vn  0.000000 0.000000 -1.000000
vn  -0.142315 0.989821 0.000000
vn  0.000000 0.000000 -1.000000
vn  -0.281733 0.959493 0.000000
vn  0.000000 0.000000 -1.000000
vn  -0.415415 0.909632 0.000000
vn  0.000000 0.000000 -1.000000
vn  -0.540641 0.841254 0.000000
vn  0.000000 0.000000 -1.000000
vn  -0.654861 0.755750 0.000000
vn  0.000000 0.000000 -1.000000
vn  -0.755750 0.654861 0.000000
vn  0.000000 0.000000 -1.000000
vn  -0.841254 0.540641 0.000000
vn  0.000000 0.000000 -1.000000
vn  -0.909632 0.415415 0.000000
vn  0.000000 0.000000 -1.000000
vn  -0.959493 0.281733 0.000000
vn  0.000000 0.000000 -1.000000
vn  -0.989821 0.142315 0.000000
vn  0.000000 0.000000 -1.000000
vn  -1.000000 0.000000 0.000000
vn  0.000000 0.000000 -1.000000
vn  -0.989821 -0.142315 0.000000
vn  0.000000 0.000000 -1.000000
vn  -0.959493 -0.281733 0.000000
vn  0.000000 0.000000 -1.000000
vn  -0.909632 -0.415415 0.000000
vn  0.000000 0.000000 -1.000000
vn  -0.841254 -0.540641 0.000000
vn  0.000000 0.000000 -1.000000
vn  -0.755750 -0.654861 0.000000
vn  0.000000 0.000000 -1.000000
vn  -0.654861 -0.755750 0.000000
vn  0.000000 0.000000 -1.000000
vn  -0.540641 -0.841254 0.000000
vn  0.000000 0.000000 -1.000000
vn  -0.415415 -0.909632 0.000000
vn  0.000000 0.000000 -1.000000
vn  -0.281733 -0.959493 0.000000
vn  0.000000 0.000000 -1.000000
vn  -0.142315 -0.989821 0.000000
vn  0.000000 0.000000 -1.000000
vn  -0.000000 -1.000000 0.000000
vn  1.000000 0.000000 0.000000
vn  0.000000 0.000000 -1.000000
vn  -1.000000 0.000000 0.000000
vn  0.000000 1.000000 0.000000
vn  0.000000 0.000000 -1.000000
vn  -1.000000 0.000000 0.000000
vn  -0.000000 -1.000000 0.000000
vn  0.000000 0.000000 -1.000000
vn  0.142315 -0.989821 0.000000
vn  0.000000 0.000000 -1.000000
vn  0.281733 -0.959493 0.000000
vn  0.000000 0.000000 -1.000000
vn  0.415415 -0.909632 0.000000
vn  0.000000 0.000000 -1.000000
vn  0.540641 -0.841254 0.000000
vn  0.000000 0.000000 -1.000000
vn  0.654861 -0.755750 0.000000
vn  0.000000 0.000000 -1.000000
vn  0.755750 -0.654861 0.000000
vn  0.000000 0.000000 -1.000000
vn  0.841254 -0.540641 0.000000
vn  0.000000 0.000000 -1.000000
vn  0.909632 -0.415415 0.000000
vn  0.000000 0.000000 -1.000000
vn  0.959493 -0.281733 0.000000
vn  0.000000 0.000000 -1.000000
vn  0.989821 -0.142315 0.000000
vn  0.000000 0.000000 -1.000000
vn  1.000000 -0.000000 0.000000
vn  0.000000 0.000000 -1.000000
vn  0.989821 0.142315 0.000000
vn  0.000000 0.000000 -1.000000
vn  0.959493 0.281733 0.000000
vn  0.000000 0.000000 -1.000000
vn  0.909632 0.415415 0.000000
vn  0.000000 0.000000 -1.000000
vn  0.841254 0.540641 0.000000
vn  0.000000 0.000000 -1.000000
vn  0.755750 0.654861 0.000000
vn  0.000000 0.000000 -1.000000
vn  0.654861 0.755750 0.000000
vn  0.000000 0.000000 -1.000000
vn  0.540641 0.841254 0.000000
vn  0.000000 0.000000 -1.000000
vn  0.415415 0.909632 0.000000
vn  0.000000 0.000000 -1.000000
vn  0.281733 0.959493 0.000000
vn  0.000000 0.000000 -1.000000
vn  0.142315 0.989821 0.000000
vn  0.000000 0.000000 1.000000
vn  -0.000000 1.000000 0.000000
vn  1.000000 0.000000 0.000000
vn  0.000000 0.000000 1.000000
vn  -0.000000 -1.000000 0.000000
vn  1.000000 0.000000 0.000000
vn  0.000000 0.000000 1.000000
vn  -0.142315 -0.989821 0.000000
vn  0.000000 0.000000 1.000000
vn  -0.281733 -0.959493 0.000000
vn  0.000000 0.000000 1.000000
vn  -0.415415 -0.909632 0.000000
vn  0.000000 0.000000 1.000000
vn  -0.540641 -0.841254 0.000000
vn  0.000000 0.000000 1.000000
vn  -0.654861 -0.755750 0.000000
vn  0.000000 0.000000 1.000000
vn  -0.755750 -0.654861 0.000000
vn  0.000000 0.000000 1.000000
vn  -0.841254 -0.540641 0.000000
vn  0.000000 0.000000 1.000000
vn  -0.909632 -0.415415 0.000000
vn  0.000000 0.000000 1.000000
vn  -0.959493 -0.281733 0.000000
vn  0.000000 0.000000 1.000000
vn  -0.989821 -0.142315 0.000000
vn  0.000000 0.000000 1.000000
vn  -1.000000 0.000000 0.000000
vn  0.000000 0.000000 1.000000
vn  -0.989821 0.142315 0.000000
vn  0.000000 0.000000 1.000000
vn  -0.959493 0.281733 0.000000
vn  0.000000 0.000000 1.000000
vn  -0.909632 0.415415 0.000000
vn  0.000000 0.000000 1.000000
vn  -0.841254 0.540641 0.000000
vn  0.000000 0.000000 1.000000
vn  -0.755750 0.654861 0.000000
vn  0.000000 0.000000 1.000000
vn  -0.654861 0.755750 0.000000
vn  0.000000 0.000000 1.000000
vn  -0.540641 0.841254 0.000000
vn  0.000000 0.000000 1.000000
vn  -0.415415 0.909632 0.000000
vn  0.000000 0.000000 1.000000
vn  -0.281733 0.959493 0.000000
vn  0.000000 0.000000 1.000000
vn  -0.142315 0.989821 0.000000
vn  0.000000 0.000000 1.000000
vn  -1.000000 0.000000 0.000000
vn  0.000000 1.000000 0.000000
vn  0.000000 0.000000 1.000000
vn  0.142315 0.989821 0.000000
vn  0.000000 0.000000 1.000000
vn  0.281733 0.959493 0.000000
vn  0.000000 0.000000 1.000000
vn  0.415415 0.909632 0.000000
vn  0.000000 0.000000 1.000000
vn  0.540641 0.841254 0.000000
vn  0.000000 0.000000 1.000000
vn  0.654861 0.755750 0.000000
vn  0.000000 0.000000 1.000000
vn  0.755750 0.654861 0.000000
vn  0.000000 0.000000 1.000000
vn  0.841254 0.540641 0.000000
vn  0.000000 0.000000 1.000000
vn  0.909632 0.415415 0.000000
vn  0.000000 0.000000 1.000000
vn  0.959493 0.281733 0.000000
vn  0.000000 0.000000 1.000000
vn  0.989821 0.142315 0.000000
vn  0.000000 0.000000 1.000000
vn  1.000000 -0.000000 0.000000
vn  0.000000 0.000000 1.000000
vn  0.989821 -0.142315 0.000000
vn  0.000000 0.000000 1.000000
vn  0.959493 -0.281733 0.000000
vn  0.000000 0.000000 1.000000
vn  0.909632 -0.415415 0.000000
vn  0.000000 0.000000 1.000000
vn  0.841254 -0.540641 0.000000
vn  0.000000 0.000000 1.000000
vn  0.755750 -0.654861 0.000000
vn  0.000000 0.000000 1.000000
vn  0.654861 -0.755750 0.000000
vn  0.000000 0.000000 1.000000
vn  0.540641 -0.841254 0.000000
vn  0.000000 0.000000 1.000000
vn  0.415415 -0.909632 0.000000
vn  0.000000 0.000000 1.000000
vn  0.281733 -0.959493 0.000000
vn  0.000000 0.000000 1.000000
vn  0.142315 -0.989821 0.000000
vn  0.000000 0.000000 1.000000
vn  -1.000000 0.000000 0.000000
vn  -0.000000 -1.000000 0.000000


g 0
g 1
usemtl DEFAULT_MTL
f 44/44/44  4/4/4  1/1/1
f 98/98/98  2/2/2  5/5/5
f 46/46/46  44/44/44  1/1/1
f 102/102/102  48/48/48  3/3/3
f 102/102/102  3/3/3  99/99/99
f 42/42/42  6/6/6  4/4/4
f 144/144/144  5/5/5  7/7/7
f 44/44/44  42/42/42  4/4/4
f 144/144/144  98/98/98  5/5/5
f 40/40/40  8/8/8  6/6/6
f 142/142/142  7/7/7  9/9/9
f 42/42/42  40/40/40  6/6/6
f 144/144/144  7/7/7  142/142/142
f 38/38/38  10/10/10  8/8/8
f 140/140/140  9/9/9  11/11/11
f 40/40/40  38/38/38  8/8/8
f 142/142/142  9/9/9  140/140/140
f 36/36/36  12/12/12  10/10/10
f 138/138/138  11/11/11  13/13/13
f 38/38/38  36/36/36  10/10/10
f 140/140/140  11/11/11  138/138/138
f 34/34/34  14/14/14  12/12/12
f 136/136/136  13/13/13  15/15/15
f 36/36/36  34/34/34  12/12/12
f 138/138/138  13/13/13  136/136/136
f 32/32/32  16/16/16  14/14/14
f 134/134/134  15/15/15  17/17/17
f 34/34/34  32/32/32  14/14/14
f 136/136/136  15/15/15  134/134/134
f 30/30/30  18/18/18  16/16/16
f 132/132/132  17/17/17  19/19/19
f 32/32/32  30/30/30  16/16/16
f 134/134/134  17/17/17  132/132/132
f 28/28/28  20/20/20  18/18/18
f 130/130/130  19/19/19  21/21/21
f 30/30/30  28/28/28  18/18/18
f 132/132/132  19/19/19  130/130/130
f 26/26/26  22/22/22  20/20/20
f 128/128/128  21/21/21  23/23/23
f 28/28/28  26/26/26  20/20/20
f 130/130/130  21/21/21  128/128/128
f 26/26/26  24/24/24  22/22/22
f 126/126/126  23/23/23  25/25/25
f 128/128/128  23/23/23  126/126/126
f 124/124/124  25/25/25  27/27/27
f 126/126/126  25/25/25  124/124/124
f 122/122/122  27/27/27  29/29/29
f 124/124/124  27/27/27  122/122/122
f 120/120/120  29/29/29  31/31/31
f 122/122/122  29/29/29  120/120/120
f 118/118/118  31/31/31  33/33/33
f 120/120/120  31/31/31  118/118/118
f 116/116/116  33/33/33  35/35/35
f 118/118/118  33/33/33  116/116/116
f 114/114/114  35/35/35  37/37/37
f 116/116/116  35/35/35  114/114/114
f 112/112/112  37/37/37  39/39/39
f 114/114/114  37/37/37  112/112/112
f 110/110/110  39/39/39  41/41/41
f 112/112/112  39/39/39  110/110/110
f 108/108/108  41/41/41  43/43/43
f 110/110/110  41/41/41  108/108/108
f 106/106/106  43/43/43  45/45/45
f 108/108/108  43/43/43  106/106/106
f 104/104/104  45/45/45  47/47/47
f 106/106/106  45/45/45  104/104/104
f 104/104/104  47/47/47  101/101/101
f 95/95/95  52/52/52  49/49/49
f 146/146/146  50/50/50  53/53/53
f 149/149/149  96/96/96  51/51/51
f 149/149/149  51/51/51  147/147/147
f 95/95/95  55/55/55  52/52/52
f 192/192/192  54/54/54  56/56/56
f 191/191/191  146/146/146  53/53/53
f 93/93/93  57/57/57  55/55/55
f 189/189/189  56/56/56  58/58/58
f 95/95/95  93/93/93  55/55/55
f 192/192/192  56/56/56  189/189/189
f 91/91/91  59/59/59  57/57/57
f 187/187/187  58/58/58  60/60/60
f 93/93/93  91/91/91  57/57/57
f 189/189/189  58/58/58  187/187/187
f 89/89/89  61/61/61  59/59/59
f 185/185/185  60/60/60  62/62/62
f 91/91/91  89/89/89  59/59/59
f 187/187/187  60/60/60  185/185/185
f 87/87/87  63/63/63  61/61/61
f 183/183/183  62/62/62  64/64/64
f 89/89/89  87/87/87  61/61/61
f 185/185/185  62/62/62  183/183/183
f 85/85/85  65/65/65  63/63/63
f 181/181/181  64/64/64  66/66/66
f 87/87/87  85/85/85  63/63/63
f 183/183/183  64/64/64  181/181/181
f 83/83/83  67/67/67  65/65/65
f 179/179/179  66/66/66  68/68/68
f 85/85/85  83/83/83  65/65/65
f 181/181/181  66/66/66  179/179/179
f 81/81/81  69/69/69  67/67/67
f 177/177/177  68/68/68  70/70/70
f 83/83/83  81/81/81  67/67/67
f 179/179/179  68/68/68  177/177/177
f 79/79/79  71/71/71  69/69/69
f 175/175/175  70/70/70  72/72/72
f 81/81/81  79/79/79  69/69/69
f 177/177/177  70/70/70  175/175/175
f 77/77/77  73/73/73  71/71/71
f 173/173/173  72/72/72  74/74/74
f 79/79/79  77/77/77  71/71/71
f 175/175/175  72/72/72  173/173/173
f 77/77/77  75/75/75  73/73/73
f 171/171/171  74/74/74  76/76/76
f 173/173/173  74/74/74  171/171/171
f 169/169/169  76/76/76  78/78/78
f 171/171/171  76/76/76  169/169/169
f 167/167/167  78/78/78  80/80/80
f 169/169/169  78/78/78  167/167/167
f 165/165/165  80/80/80  82/82/82
f 167/167/167  80/80/80  165/165/165
f 163/163/163  82/82/82  84/84/84
f 165/165/165  82/82/82  163/163/163
f 161/161/161  84/84/84  86/86/86
f 163/163/163  84/84/84  161/161/161
f 159/159/159  86/86/86  88/88/88
f 161/161/161  86/86/86  159/159/159
f 157/157/157  88/88/88  90/90/90
f 159/159/159  88/88/88  157/157/157
f 155/155/155  90/90/90  92/92/92
f 157/157/157  90/90/90  155/155/155
f 153/153/153  92/92/92  94/94/94
f 155/155/155  92/92/92  153/153/153
f 151/151/151  94/94/94  96/96/96
f 153/153/153  94/94/94  151/151/151
f 151/151/151  96/96/96  149/149/149
f 143/143/143  100/100/100  97/97/97
f 143/143/143  103/103/103  100/100/100
f 141/141/141  105/105/105  103/103/103
f 143/143/143  141/141/141  103/103/103
f 139/139/139  107/107/107  105/105/105
f 141/141/141  139/139/139  105/105/105
f 137/137/137  109/109/109  107/107/107
f 139/139/139  137/137/137  107/107/107
f 135/135/135  111/111/111  109/109/109
f 137/137/137  135/135/135  109/109/109
f 133/133/133  113/113/113  111/111/111
f 135/135/135  133/133/133  111/111/111
f 131/131/131  115/115/115  113/113/113
f 133/133/133  131/131/131  113/113/113
f 129/129/129  117/117/117  115/115/115
f 131/131/131  129/129/129  115/115/115
f 127/127/127  119/119/119  117/117/117
f 129/129/129  127/127/127  117/117/117
f 125/125/125  121/121/121  119/119/119
f 127/127/127  125/125/125  119/119/119
f 125/125/125  123/123/123  121/121/121
f 188/188/188  148/148/148  145/145/145
f 190/190/190  188/188/188  145/145/145
f 186/186/186  150/150/150  148/148/148
f 188/188/188  186/186/186  148/148/148
f 184/184/184  152/152/152  150/150/150
f 186/186/186  184/184/184  150/150/150
f 182/182/182  154/154/154  152/152/152
f 184/184/184  182/182/182  152/152/152
f 180/180/180  156/156/156  154/154/154
f 182/182/182  180/180/180  154/154/154
f 178/178/178  158/158/158  156/156/156
f 180/180/180  178/178/178  156/156/156
f 176/176/176  160/160/160  158/158/158
f 178/178/178  176/176/176  158/158/158
f 174/174/174  162/162/162  160/160/160
f 176/176/176  174/174/174  160/160/160
f 172/172/172  164/164/164  162/162/162
f 174/174/174  172/172/172  162/162/162
f 170/170/170  166/166/166  164/164/164
f 172/172/172  170/170/170  164/164/164
f 170/170/170  168/168/168  166/166/166
