mtllib businessactor.mtl

v  4.799637 21.417344 -5.000000
v  4.799637 21.417344 -5.000000
v  4.799637 21.417344 -5.000000
v  14.726049 25.356122 -5.000000
v  14.726049 25.356122 -5.000000
v  22.352567 32.838525 -5.000000
v  22.352567 32.838525 -5.000000
v  26.479976 42.687997 -5.000000
v  26.479976 42.687997 -5.000000
v  26.465854 53.367296 -5.000000
v  26.465854 53.367296 -5.000000
v  22.310783 63.210339 -5.000000
v  22.310783 63.210339 -5.000000
v  14.668118 70.669380 -5.000000
v  14.668118 70.669380 -5.000000
v  4.731325 74.581892 -5.000000
v  4.731325 74.581892 -5.000000
v  -5.949951 74.335976 -5.000000
v  -5.949951 74.335976 -5.000000
v  -15.696154 69.970299 -5.000000
v  -15.696154 69.970299 -5.000000
v  -22.987442 62.167432 -5.000000
v  -22.987442 62.167432 -5.000000
v  -26.685115 52.143593 -5.000000
v  -26.685115 52.143593 -5.000000
v  -26.207740 41.474960 -5.000000
v  -26.207740 41.474960 -5.000000
v  -21.631412 31.825875 -5.000000
v  -21.631412 31.825875 -5.000000
v  -13.668621 24.702388 -5.000000
v  -13.668621 24.702388 -5.000000
v  -3.571457 21.224616 -5.000000
v  -3.571457 21.224616 -5.000000
v  -3.571457 21.224616 -5.000000
v  -3.571457 14.551241 -5.000000
v  -3.571457 14.551241 -5.000000
v  -3.571457 14.551241 -5.000000
v  -50.000000 14.551241 -5.000000
v  -50.000000 14.551241 -5.000000
v  -50.000000 14.551241 -5.000000
v  -50.000000 9.921302 -5.000000
v  -50.000000 9.921302 -5.000000
v  -50.000000 9.921302 -5.000000
v  -3.571457 9.921302 -5.000000
v  -3.571457 9.921302 -5.000000
v  -3.571457 9.921302 -5.000000
v  -3.571457 -29.895955 -5.000000
v  -3.571457 -29.895955 -5.000000
v  -3.571457 -29.895955 -5.000000
v  -47.689298 -71.533948 -5.000000
v  -47.689298 -71.533948 -5.000000
v  -47.689298 -71.533948 -5.000000
v  -43.512946 -75.000000 -5.000000
v  -43.512946 -75.000000 -5.000000
v  -43.512946 -75.000000 -5.000000
v  -3.571457 -37.303609 -5.000000
v  -3.571457 -37.303609 -5.000000
v  -3.571457 -37.303609 -5.000000
v  3.571457 -37.303609 -5.000000
v  3.571457 -37.303609 -5.000000
v  3.571457 -37.303609 -5.000000
v  43.512946 -75.000000 -5.000000
v  43.512946 -75.000000 -5.000000
v  43.512946 -75.000000 -5.000000
v  47.689298 -71.533948 -5.000000
v  47.689298 -71.533948 -5.000000
v  47.689298 -71.533948 -5.000000
v  4.799637 -31.055100 -5.000000
v  4.799637 -31.055100 -5.000000
v  4.799637 -31.055100 -5.000000
v  4.799637 9.921302 -5.000000
v  4.799637 9.921302 -5.000000
v  4.799637 9.921302 -5.000000
v  50.000000 9.921302 -5.000000
v  50.000000 9.921302 -5.000000
v  50.000000 9.921302 -5.000000
v  50.000000 14.551241 -5.000000
v  50.000000 14.551241 -5.000000
v  50.000000 14.551241 -5.000000
v  4.799637 14.551241 -5.000000
v  4.799637 14.551241 -5.000000
v  4.799637 14.551241 -5.000000
v  4.799637 21.417344 5.000000
v  4.799637 21.417344 5.000000
v  4.799637 21.417344 5.000000
v  4.799637 14.551241 5.000000
v  4.799637 14.551241 5.000000
v  4.799637 14.551241 5.000000
v  50.000000 14.551241 5.000000
v  50.000000 14.551241 5.000000
v  50.000000 14.551241 5.000000
v  50.000000 9.921302 5.000000
v  50.000000 9.921302 5.000000
v  50.000000 9.921302 5.000000
v  4.799637 9.921302 5.000000
v  4.799637 9.921302 5.000000
v  4.799637 9.921302 5.000000
v  4.799637 -31.055100 5.000000
v  4.799637 -31.055100 5.000000
v  4.799637 -31.055100 5.000000
v  47.689298 -71.533948 5.000000
v  47.689298 -71.533948 5.000000
v  47.689298 -71.533948 5.000000
v  43.512946 -75.000000 5.000000
v  43.512946 -75.000000 5.000000
v  43.512946 -75.000000 5.000000
v  3.571457 -37.303609 5.000000
v  3.571457 -37.303609 5.000000
v  3.571457 -37.303609 5.000000
v  -3.571457 -37.303609 5.000000
v  -3.571457 -37.303609 5.000000
v  -3.571457 -37.303609 5.000000
v  -43.512946 -75.000000 5.000000
v  -43.512946 -75.000000 5.000000
v  -43.512946 -75.000000 5.000000
v  -47.689298 -71.533948 5.000000
v  -47.689298 -71.533948 5.000000
v  -47.689298 -71.533948 5.000000
v  -3.571457 -29.895955 5.000000
v  -3.571457 -29.895955 5.000000
v  -3.571457 -29.895955 5.000000
v  -3.571457 9.921302 5.000000
v  -3.571457 9.921302 5.000000
v  -3.571457 9.921302 5.000000
v  -50.000000 9.921302 5.000000
v  -50.000000 9.921302 5.000000
v  -50.000000 9.921302 5.000000
v  -50.000000 14.551241 5.000000
v  -50.000000 14.551241 5.000000
v  -50.000000 14.551241 5.000000
v  -3.571457 14.551241 5.000000
v  -3.571457 14.551241 5.000000
v  -3.571457 14.551241 5.000000
v  -3.571457 21.224616 5.000000
v  -3.571457 21.224616 5.000000
v  -3.571457 21.224616 5.000000
v  -13.668621 24.702388 5.000000
v  -13.668621 24.702388 5.000000
v  -21.631412 31.825875 5.000000
v  -21.631412 31.825875 5.000000
v  -26.207740 41.474960 5.000000
v  -26.207740 41.474960 5.000000
v  -26.685115 52.143593 5.000000
v  -26.685115 52.143593 5.000000
v  -22.987442 62.167432 5.000000
v  -22.987442 62.167432 5.000000
v  -15.696154 69.970299 5.000000
v  -15.696154 69.970299 5.000000
v  -5.949951 74.335976 5.000000
v  -5.949951 74.335976 5.000000
v  4.731325 74.581892 5.000000
v  4.731325 74.581892 5.000000
v  14.668118 70.669380 5.000000
v  14.668118 70.669380 5.000000
v  22.310783 63.210339 5.000000
v  22.310783 63.210339 5.000000
v  26.465854 53.367296 5.000000
v  26.465854 53.367296 5.000000
v  26.479976 42.687997 5.000000
v  26.479976 42.687997 5.000000
v  22.352567 32.838525 5.000000
v  22.352567 32.838525 5.000000
v  14.726049 25.356122 5.000000
v  14.726049 25.356122 5.000000

vt  0.547996 0.644579 0.000000
vt  0.547996 0.644579 0.000000
vt  0.547996 0.644579 0.000000
vt  0.647260 0.670911 0.000000
vt  0.647260 0.670911 0.000000
vt  0.723526 0.720933 0.000000
vt  0.723526 0.720933 0.000000
vt  0.764800 0.786780 0.000000
vt  0.764800 0.786780 0.000000
vt  0.764659 0.858174 0.000000
vt  0.764659 0.858174 0.000000
vt  0.723108 0.923978 0.000000
vt  0.723108 0.923978 0.000000
vt  0.646681 0.973844 0.000000
vt  0.646681 0.973844 0.000000
vt  0.547313 1.000000 0.000000
vt  0.547313 1.000000 0.000000
vt  0.440500 0.998356 0.000000
vt  0.440500 0.998356 0.000000
vt  0.343038 0.969170 0.000000
vt  0.343038 0.969170 0.000000
vt  0.270126 0.917006 0.000000
vt  0.270126 0.917006 0.000000
vt  0.233149 0.849993 0.000000
vt  0.233149 0.849993 0.000000
vt  0.237923 0.778670 0.000000
vt  0.237923 0.778670 0.000000
vt  0.283686 0.714163 0.000000
vt  0.283686 0.714163 0.000000
vt  0.363314 0.666540 0.000000
vt  0.363314 0.666540 0.000000
vt  0.464285 0.643291 0.000000
vt  0.464285 0.643291 0.000000
vt  0.464285 0.643291 0.000000
vt  0.464285 0.598677 0.000000
vt  0.464285 0.598677 0.000000
vt  0.464285 0.598677 0.000000
vt  0.000000 0.598677 0.000000
vt  0.000000 0.598677 0.000000
vt  0.000000 0.598677 0.000000
vt  0.000000 0.567724 0.000000
vt  0.000000 0.567724 0.000000
vt  0.000000 0.567724 0.000000
vt  0.464285 0.567724 0.000000
vt  0.464285 0.567724 0.000000
vt  0.464285 0.567724 0.000000
vt  0.464285 0.301534 0.000000
vt  0.464285 0.301534 0.000000
vt  0.464285 0.301534 0.000000
vt  0.023107 0.023172 0.000000
vt  0.023107 0.023172 0.000000
vt  0.023107 0.023172 0.000000
vt  0.064871 0.000000 0.000000
vt  0.064871 0.000000 0.000000
vt  0.064871 0.000000 0.000000
vt  0.464285 0.252012 0.000000
vt  0.464285 0.252012 0.000000
vt  0.464285 0.252012 0.000000
vt  0.535715 0.252012 0.000000
vt  0.535715 0.252012 0.000000
vt  0.535715 0.252012 0.000000
vt  0.935129 0.000000 0.000000
vt  0.935129 0.000000 0.000000
vt  0.935129 0.000000 0.000000
vt  0.976893 0.023172 0.000000
vt  0.976893 0.023172 0.000000
vt  0.976893 0.023172 0.000000
vt  0.547996 0.293785 0.000000
vt  0.547996 0.293785 0.000000
vt  0.547996 0.293785 0.000000
vt  0.547996 0.567724 0.000000
vt  0.547996 0.567724 0.000000
vt  0.547996 0.567724 0.000000
vt  1.000000 0.567724 0.000000
vt  1.000000 0.567724 0.000000
vt  1.000000 0.567724 0.000000
vt  1.000000 0.598677 0.000000
vt  1.000000 0.598677 0.000000
vt  1.000000 0.598677 0.000000
vt  0.547996 0.598677 0.000000
vt  0.547996 0.598677 0.000000
vt  0.547996 0.598677 0.000000
vt  0.547996 0.644579 0.000000
vt  0.547996 0.644579 0.000000
vt  0.547996 0.644579 0.000000
vt  0.547996 0.598677 0.000000
vt  0.547996 0.598677 0.000000
vt  0.547996 0.598677 0.000000
vt  1.000000 0.598677 0.000000
vt  1.000000 0.598677 0.000000
vt  1.000000 0.598677 0.000000
vt  1.000000 0.567724 0.000000
vt  1.000000 0.567724 0.000000
vt  1.000000 0.567724 0.000000
vt  0.547996 0.567724 0.000000
vt  0.547996 0.567724 0.000000
vt  0.547996 0.567724 0.000000
vt  0.547996 0.293785 0.000000
vt  0.547996 0.293785 0.000000
vt  0.547996 0.293785 0.000000
vt  0.976893 0.023172 0.000000
vt  0.976893 0.023172 0.000000
vt  0.976893 0.023172 0.000000
vt  0.935129 0.000000 0.000000
vt  0.935129 0.000000 0.000000
vt  0.935129 0.000000 0.000000
vt  0.535715 0.252012 0.000000
vt  0.535715 0.252012 0.000000
vt  0.535715 0.252012 0.000000
vt  0.464285 0.252012 0.000000
vt  0.464285 0.252012 0.000000
vt  0.464285 0.252012 0.000000
vt  0.064871 0.000000 0.000000
vt  0.064871 0.000000 0.000000
vt  0.064871 0.000000 0.000000
vt  0.023107 0.023172 0.000000
vt  0.023107 0.023172 0.000000
vt  0.023107 0.023172 0.000000
vt  0.464285 0.301534 0.000000
vt  0.464285 0.301534 0.000000
vt  0.464285 0.301534 0.000000
vt  0.464285 0.567724 0.000000
vt  0.464285 0.567724 0.000000
vt  0.464285 0.567724 0.000000
vt  0.000000 0.567724 0.000000
vt  0.000000 0.567724 0.000000
vt  0.000000 0.567724 0.000000
vt  0.000000 0.598677 0.000000
vt  0.000000 0.598677 0.000000
vt  0.000000 0.598677 0.000000
vt  0.464285 0.598677 0.000000
vt  0.464285 0.598677 0.000000
vt  0.464285 0.598677 0.000000
vt  0.464285 0.643291 0.000000
vt  0.464285 0.643291 0.000000
vt  0.464285 0.643291 0.000000
vt  0.363314 0.666540 0.000000
vt  0.363314 0.666540 0.000000
vt  0.283686 0.714163 0.000000
vt  0.283686 0.714163 0.000000
vt  0.237923 0.778670 0.000000
vt  0.237923 0.778670 0.000000
vt  0.233149 0.849993 0.000000
vt  0.233149 0.849993 0.000000
vt  0.270126 0.917006 0.000000
vt  0.270126 0.917006 0.000000
vt  0.343038 0.969170 0.000000
vt  0.343038 0.969170 0.000000
vt  0.440500 0.998356 0.000000
vt  0.440500 0.998356 0.000000
vt  0.547313 1.000000 0.000000
vt  0.547313 1.000000 0.000000
vt  0.646681 0.973844 0.000000
vt  0.646681 0.973844 0.000000
vt  0.723108 0.923978 0.000000
vt  0.723108 0.923978 0.000000
vt  0.764659 0.858174 0.000000
vt  0.764659 0.858174 0.000000
vt  0.764800 0.786780 0.000000
vt  0.764800 0.786780 0.000000
vt  0.723526 0.720933 0.000000
vt  0.723526 0.720933 0.000000
vt  0.647260 0.670911 0.000000
vt  0.647260 0.670911 0.000000

vn  0.000000 0.000000 -1.000000
vn  0.177723 -0.984081 0.000000
vn  1.000000 0.000000 0.000000
vn  0.000000 0.000000 -1.000000
vn  0.545342 -0.838213 0.000000
vn  0.000000 0.000000 -1.000000
vn  0.827658 -0.561232 0.000000
vn  0.000000 0.000000 -1.000000
vn  0.980511 -0.196462 0.000000
vn  0.000000 0.000000 -1.000000
vn  0.979992 0.199039 0.000000
vn  0.000000 0.000000 -1.000000
vn  0.826180 0.563406 0.000000
vn  0.000000 0.000000 -1.000000
vn  0.543137 0.839644 0.000000
vn  0.000000 0.000000 -1.000000
vn  0.175136 0.984544 0.000000
vn  0.000000 0.000000 -1.000000
vn  -0.220261 0.975441 0.000000
vn  0.000000 0.000000 -1.000000
vn  -0.581204 0.813758 0.000000
vn  0.000000 0.000000 -1.000000
vn  -0.851234 0.524786 0.000000
vn  0.000000 0.000000 -1.000000
vn  -0.988113 0.153727 0.000000
vn  0.000000 0.000000 -1.000000
vn  -0.970431 -0.241379 0.000000
vn  0.000000 0.000000 -1.000000
vn  -0.800953 -0.598728 0.000000
vn  0.000000 0.000000 -1.000000
vn  -0.506188 -0.862423 0.000000
vn  0.000000 0.000000 -1.000000
vn  -0.132245 -0.991217 0.000000
vn  -1.000000 0.000000 0.000000
vn  0.000000 0.000000 -1.000000
vn  -1.000000 0.000000 0.000000
vn  0.000000 1.000000 0.000000
vn  0.000000 0.000000 -1.000000
vn  0.000000 1.000000 0.000000
vn  -1.000000 0.000000 0.000000
vn  0.000000 0.000000 -1.000000
vn  -1.000000 0.000000 0.000000
vn  -0.000000 -1.000000 0.000000
vn  0.000000 0.000000 -1.000000
vn  -0.000000 -1.000000 0.000000
vn  -1.000000 0.000000 0.000000
vn  0.000000 0.000000 -1.000000
vn  -1.000000 0.000000 0.000000
vn  -0.686372 0.727251 0.000000
vn  0.000000 0.000000 -1.000000
vn  -0.686372 0.727251 0.000000
vn  -0.638634 -0.769510 0.000000
vn  0.000000 0.000000 -1.000000
vn  -0.638634 -0.769510 0.000000
vn  0.686372 -0.727251 0.000000
vn  0.000000 0.000000 -1.000000
vn  0.686372 -0.727251 0.000000
vn  0.000000 -1.000000 0.000000
vn  0.000000 0.000000 -1.000000
vn  0.000000 -1.000000 0.000000
vn  -0.686372 -0.727251 0.000000
vn  0.000000 0.000000 -1.000000
vn  -0.686372 -0.727251 0.000000
vn  0.638634 -0.769510 0.000000
vn  0.000000 0.000000 -1.000000
vn  0.638634 -0.769510 0.000000
vn  0.686372 0.727251 0.000000
vn  0.000000 0.000000 -1.000000
vn  0.686372 0.727251 0.000000
vn  1.000000 0.000000 0.000000
vn  0.000000 0.000000 -1.000000
vn  1.000000 0.000000 0.000000
vn  0.000000 -1.000000 0.000000
vn  0.000000 0.000000 -1.000000
vn  0.000000 -1.000000 0.000000
vn  1.000000 0.000000 0.000000
vn  0.000000 0.000000 -1.000000
vn  1.000000 0.000000 0.000000
vn  0.000000 1.000000 0.000000
vn  0.000000 0.000000 -1.000000
vn  0.000000 1.000000 0.000000
vn  1.000000 0.000000 0.000000
vn  0.000000 0.000000 1.000000
vn  0.177723 -0.984081 0.000000
vn  1.000000 0.000000 0.000000
vn  0.000000 0.000000 1.000000
vn  0.000000 1.000000 0.000000
vn  1.000000 0.000000 0.000000
vn  0.000000 0.000000 1.000000
vn  1.000000 0.000000 0.000000
vn  0.000000 1.000000 0.000000
vn  0.000000 0.000000 1.000000
vn  0.000000 -1.000000 0.000000
vn  1.000000 0.000000 0.000000
vn  0.000000 0.000000 1.000000
vn  1.000000 0.000000 0.000000
vn  0.000000 -1.000000 0.000000
vn  0.000000 0.000000 1.000000
vn  0.686372 0.727251 0.000000
vn  1.000000 0.000000 0.000000
vn  0.000000 0.000000 1.000000
vn  0.638634 -0.769510 0.000000
vn  0.686372 0.727251 0.000000
vn  0.000000 0.000000 1.000000
vn  -0.686372 -0.727251 0.000000
vn  0.638634 -0.769510 0.000000
vn  0.000000 0.000000 1.000000
vn  0.000000 -1.000000 0.000000
vn  -0.686372 -0.727251 0.000000
vn  0.000000 0.000000 1.000000
vn  0.686372 -0.727251 0.000000
vn  0.000000 -1.000000 0.000000
vn  0.000000 0.000000 1.000000
vn  -0.638634 -0.769510 0.000000
vn  0.686372 -0.727251 0.000000
vn  0.000000 0.000000 1.000000
vn  -0.686372 0.727251 0.000000
vn  -0.638634 -0.769510 0.000000
vn  0.000000 0.000000 1.000000
vn  -1.000000 0.000000 0.000000
vn  -0.686372 0.727251 0.000000
vn  0.000000 0.000000 1.000000
vn  -0.000000 -1.000000 0.000000
vn  -1.000000 0.000000 0.000000
vn  0.000000 0.000000 1.000000
vn  -1.000000 0.000000 0.000000
vn  -0.000000 -1.000000 0.000000
vn  0.000000 0.000000 1.000000
vn  0.000000 1.000000 0.000000
vn  -1.000000 0.000000 0.000000
vn  0.000000 0.000000 1.000000
vn  -1.000000 0.000000 0.000000
vn  0.000000 1.000000 0.000000
vn  0.000000 0.000000 1.000000
vn  -0.132245 -0.991217 0.000000
vn  -1.000000 0.000000 0.000000
vn  0.000000 0.000000 1.000000
vn  -0.506188 -0.862423 0.000000
vn  0.000000 0.000000 1.000000
vn  -0.800953 -0.598728 0.000000
vn  0.000000 0.000000 1.000000
vn  -0.970431 -0.241379 0.000000
vn  0.000000 0.000000 1.000000
vn  -0.988113 0.153727 0.000000
vn  0.000000 0.000000 1.000000
vn  -0.851234 0.524786 0.000000
vn  0.000000 0.000000 1.000000
vn  -0.581204 0.813758 0.000000
vn  0.000000 0.000000 1.000000
vn  -0.220261 0.975441 0.000000
vn  0.000000 0.000000 1.000000
vn  0.175136 0.984544 0.000000
vn  0.000000 0.000000 1.000000
vn  0.543137 0.839644 0.000000
vn  0.000000 0.000000 1.000000
vn  0.826180 0.563406 0.000000
vn  0.000000 0.000000 1.000000
vn  0.979992 0.199039 0.000000
vn  0.000000 0.000000 1.000000
vn  0.980511 -0.196462 0.000000
vn  0.000000 0.000000 1.000000
vn  0.827658 -0.561232 0.000000
vn  0.000000 0.000000 1.000000
vn  0.545342 -0.838213 0.000000


g 0
g 1
usemtl DEFAULT_MTL
f 30/30/30  4/4/4  1/1/1
f 84/84/84  2/2/2  5/5/5
f 32/32/32  30/30/30  1/1/1
f 80/80/80  32/32/32  1/1/1
f 85/85/85  82/82/82  3/3/3
f 28/28/28  6/6/6  4/4/4
f 164/164/164  5/5/5  7/7/7
f 30/30/30  28/28/28  4/4/4
f 164/164/164  84/84/84  5/5/5
f 26/26/26  8/8/8  6/6/6
f 162/162/162  7/7/7  9/9/9
f 28/28/28  26/26/26  6/6/6
f 164/164/164  7/7/7  162/162/162
f 24/24/24  10/10/10  8/8/8
f 160/160/160  9/9/9  11/11/11
f 26/26/26  24/24/24  8/8/8
f 162/162/162  9/9/9  160/160/160
f 22/22/22  12/12/12  10/10/10
f 158/158/158  11/11/11  13/13/13
f 24/24/24  22/22/22  10/10/10
f 160/160/160  11/11/11  158/158/158
f 20/20/20  14/14/14  12/12/12
f 156/156/156  13/13/13  15/15/15
f 22/22/22  20/20/20  12/12/12
f 158/158/158  13/13/13  156/156/156
f 18/18/18  16/16/16  14/14/14
f 154/154/154  15/15/15  17/17/17
f 20/20/20  18/18/18  14/14/14
f 156/156/156  15/15/15  154/154/154
f 152/152/152  17/17/17  19/19/19
f 154/154/154  17/17/17  152/152/152
f 150/150/150  19/19/19  21/21/21
f 152/152/152  19/19/19  150/150/150
f 148/148/148  21/21/21  23/23/23
f 150/150/150  21/21/21  148/148/148
f 146/146/146  23/23/23  25/25/25
f 148/148/148  23/23/23  146/146/146
f 144/144/144  25/25/25  27/27/27
f 146/146/146  25/25/25  144/144/144
f 142/142/142  27/27/27  29/29/29
f 144/144/144  27/27/27  142/142/142
f 140/140/140  29/29/29  31/31/31
f 142/142/142  29/29/29  140/140/140
f 138/138/138  31/31/31  33/33/33
f 140/140/140  31/31/31  138/138/138
f 80/80/80  35/35/35  32/32/32
f 132/132/132  34/34/34  36/36/36
f 136/136/136  34/34/34  132/132/132
f 138/138/138  33/33/33  135/135/135
f 74/74/74  38/38/38  35/35/35
f 133/133/133  37/37/37  39/39/39
f 80/80/80  74/74/74  35/35/35
f 44/44/44  41/41/41  38/38/38
f 126/126/126  40/40/40  42/42/42
f 71/71/71  44/44/44  38/38/38
f 74/74/74  71/71/71  38/38/38
f 130/130/130  40/40/40  126/126/126
f 133/133/133  39/39/39  129/129/129
f 127/127/127  43/43/43  45/45/45
f 68/68/68  47/47/47  44/44/44
f 124/124/124  46/46/46  48/48/48
f 71/71/71  68/68/68  44/44/44
f 127/127/127  45/45/45  123/123/123
f 56/56/56  50/50/50  47/47/47
f 121/121/121  49/49/49  51/51/51
f 59/59/59  56/56/56  47/47/47
f 68/68/68  59/59/59  47/47/47
f 124/124/124  48/48/48  120/120/120
f 56/56/56  53/53/53  50/50/50
f 114/114/114  52/52/52  54/54/54
f 118/118/118  52/52/52  114/114/114
f 121/121/121  51/51/51  117/117/117
f 115/115/115  55/55/55  57/57/57
f 108/108/108  58/58/58  60/60/60
f 112/112/112  58/58/58  108/108/108
f 115/115/115  57/57/57  111/111/111
f 65/65/65  62/62/62  59/59/59
f 109/109/109  61/61/61  63/63/63
f 68/68/68  65/65/65  59/59/59
f 102/102/102  64/64/64  66/66/66
f 106/106/106  64/64/64  102/102/102
f 109/109/109  63/63/63  105/105/105
f 103/103/103  67/67/67  69/69/69
f 100/100/100  70/70/70  72/72/72
f 103/103/103  69/69/69  99/99/99
f 97/97/97  73/73/73  75/75/75
f 100/100/100  72/72/72  96/96/96
f 80/80/80  77/77/77  74/74/74
f 90/90/90  76/76/76  78/78/78
f 94/94/94  76/76/76  90/90/90
f 97/97/97  75/75/75  93/93/93
f 91/91/91  79/79/79  81/81/81
f 88/88/88  82/82/82  85/85/85
f 91/91/91  81/81/81  87/87/87
f 131/131/131  86/86/86  83/83/83
f 134/134/134  131/131/131  83/83/83
f 137/137/137  134/134/134  83/83/83
f 163/163/163  137/137/137  83/83/83
f 125/125/125  89/89/89  86/86/86
f 131/131/131  125/125/125  86/86/86
f 95/95/95  92/92/92  89/89/89
f 122/122/122  95/95/95  89/89/89
f 125/125/125  122/122/122  89/89/89
f 119/119/119  98/98/98  95/95/95
f 122/122/122  119/119/119  95/95/95
f 107/107/107  101/101/101  98/98/98
f 110/110/110  107/107/107  98/98/98
f 119/119/119  110/110/110  98/98/98
f 107/107/107  104/104/104  101/101/101
f 116/116/116  113/113/113  110/110/110
f 119/119/119  116/116/116  110/110/110
f 131/131/131  128/128/128  125/125/125
f 163/163/163  139/139/139  137/137/137
f 161/161/161  141/141/141  139/139/139
f 163/163/163  161/161/161  139/139/139
f 159/159/159  143/143/143  141/141/141
f 161/161/161  159/159/159  141/141/141
f 157/157/157  145/145/145  143/143/143
f 159/159/159  157/157/157  143/143/143
f 155/155/155  147/147/147  145/145/145
f 157/157/157  155/155/155  145/145/145
f 153/153/153  149/149/149  147/147/147
f 155/155/155  153/153/153  147/147/147
f 153/153/153  151/151/151  149/149/149
