mtllib capacity.mtl

v  18.212944 -14.907702 -10.000000
v  18.212944 -14.907702 -10.000000
v  18.212944 -14.907702 -10.000000
v  18.212944 -50.000000 -10.000000
v  18.212944 -50.000000 -10.000000
v  18.212944 -50.000000 -10.000000
v  50.000000 -50.000000 -10.000000
v  50.000000 -50.000000 -10.000000
v  50.000000 -50.000000 -10.000000
v  50.000000 -14.907702 -10.000000
v  50.000000 -14.907702 -10.000000
v  50.000000 -14.907702 -10.000000
v  18.212944 -14.907702 10.000000
v  18.212944 -14.907702 10.000000
v  18.212944 -14.907702 10.000000
v  50.000000 -14.907702 10.000000
v  50.000000 -14.907702 10.000000
v  50.000000 -14.907702 10.000000
v  50.000000 -50.000000 10.000000
v  50.000000 -50.000000 10.000000
v  50.000000 -50.000000 10.000000
v  18.212944 -50.000000 10.000000
v  18.212944 -50.000000 10.000000
v  18.212944 -50.000000 10.000000
v  18.212944 -14.907702 -9.100000
v  18.212944 -14.907702 -9.100000
v  18.212944 -14.907702 -9.100000
v  18.212944 24.777487 -9.100000
v  18.212944 24.777487 -9.100000
v  18.212944 24.777487 -9.100000
v  18.212944 24.777487 -8.500000
v  18.212944 24.777487 -8.500000
v  18.212944 24.777487 -8.500000
v  18.212944 50.000000 -8.500000
v  18.212944 50.000000 -8.500000
v  18.212944 50.000000 -8.500000
v  18.212944 50.000000 8.500000
v  18.212944 50.000000 8.500000
v  18.212944 50.000000 8.500000
v  18.212944 24.777487 8.500000
v  18.212944 24.777487 8.500000
v  18.212944 24.777487 8.500000
v  18.212944 24.777487 9.100000
v  18.212944 24.777487 9.100000
v  18.212944 24.777487 9.100000
v  18.212944 -14.907702 9.100000
v  18.212944 -14.907702 9.100000
v  18.212944 -14.907702 9.100000
v  18.212944 -14.907702 7.400000
v  18.212944 -14.907702 7.400000
v  18.212944 -14.907702 7.400000
v  18.212944 24.777487 7.400000
v  18.212944 24.777487 7.400000
v  18.212944 24.777487 7.400000
v  18.212944 24.777487 -7.400000
v  18.212944 24.777487 -7.400000
v  18.212944 24.777487 -7.400000
v  18.212944 -14.907702 -7.400000
v  18.212944 -14.907702 -7.400000
v  18.212944 -14.907702 -7.400000
v  -19.157276 24.777487 7.400000
v  -19.157276 24.777487 7.400000
v  -19.157276 24.777487 7.400000
v  -19.157276 24.777487 -7.400000
v  -19.157276 24.777487 -7.400000
v  -19.157276 24.777487 -7.400000
v  -19.157276 -14.907702 7.400000
v  -19.157276 -14.907702 7.400000
v  -19.157276 -14.907702 7.400000
v  -19.157276 -14.907702 -7.400000
v  -19.157276 -14.907702 -7.400000
v  -19.157276 -14.907702 -7.400000
v  50.000000 -14.907702 -9.100000
v  50.000000 -14.907702 -9.100000
v  50.000000 -14.907702 -9.100000
v  50.000000 -14.907702 9.100000
v  50.000000 -14.907702 9.100000
v  50.000000 -14.907702 9.100000
v  18.212944 -14.907702 10.700000
v  18.212944 -14.907702 10.700000
v  18.212944 -14.907702 10.700000
v  -19.157276 -14.907702 10.700000
v  -19.157276 -14.907702 10.700000
v  -19.157276 -14.907702 10.700000
v  -19.157276 -14.907702 8.700000
v  -19.157276 -14.907702 8.700000
v  -19.157276 -14.907702 8.700000
v  -50.000000 -14.907702 8.700000
v  -50.000000 -14.907702 8.700000
v  -50.000000 -14.907702 8.700000
v  -50.000000 -14.907702 -8.700000
v  -50.000000 -14.907702 -8.700000
v  -50.000000 -14.907702 -8.700000
v  -19.157276 -14.907702 -8.700000
v  -19.157276 -14.907702 -8.700000
v  -19.157276 -14.907702 -8.700000
v  -19.157276 -14.907702 -10.700000
v  -19.157276 -14.907702 -10.700000
v  -19.157276 -14.907702 -10.700000
v  18.212944 -14.907702 -10.700000
v  18.212944 -14.907702 -10.700000
v  18.212944 -14.907702 -10.700000
v  -50.000000 -50.000000 8.700000
v  -50.000000 -50.000000 8.700000
v  -50.000000 -50.000000 8.700000
v  -50.000000 -50.000000 -8.700000
v  -50.000000 -50.000000 -8.700000
v  -50.000000 -50.000000 -8.700000
v  18.212944 -50.000000 -10.700000
v  18.212944 -50.000000 -10.700000
v  18.212944 -50.000000 -10.700000
v  -19.157276 -50.000000 -10.700000
v  -19.157276 -50.000000 -10.700000
v  -19.157276 -50.000000 -10.700000
v  -19.157276 -50.000000 -8.700000
v  -19.157276 -50.000000 -8.700000
v  -19.157276 -50.000000 -8.700000
v  -19.157276 -50.000000 8.700000
v  -19.157276 -50.000000 8.700000
v  -19.157276 -50.000000 8.700000
v  -19.157276 -50.000000 10.700000
v  -19.157276 -50.000000 10.700000
v  -19.157276 -50.000000 10.700000
v  18.212944 -50.000000 10.700000
v  18.212944 -50.000000 10.700000
v  18.212944 -50.000000 10.700000
v  50.000000 24.777487 9.100000
v  50.000000 24.777487 9.100000
v  50.000000 24.777487 9.100000
v  50.000000 24.777487 8.500000
v  50.000000 24.777487 8.500000
v  50.000000 24.777487 8.500000
v  50.000000 50.000000 8.500000
v  50.000000 50.000000 8.500000
v  50.000000 50.000000 8.500000
v  50.000000 50.000000 -8.500000
v  50.000000 50.000000 -8.500000
v  50.000000 50.000000 -8.500000
v  50.000000 24.777487 -8.500000
v  50.000000 24.777487 -8.500000
v  50.000000 24.777487 -8.500000
v  50.000000 24.777487 -9.100000
v  50.000000 24.777487 -9.100000
v  50.000000 24.777487 -9.100000

vt  0.682129 0.350923 0.000000
vt  0.682129 0.350923 0.000000
vt  0.682129 0.350923 0.000000
vt  0.682129 0.000000 0.000000
vt  0.682129 0.000000 0.000000
vt  0.682129 0.000000 0.000000
vt  1.000000 0.000000 0.000000
vt  1.000000 0.000000 0.000000
vt  1.000000 0.000000 0.000000
vt  1.000000 0.350923 0.000000
vt  1.000000 0.350923 0.000000
vt  1.000000 0.350923 0.000000
vt  0.682129 0.350923 0.000000
vt  0.682129 0.350923 0.000000
vt  0.682129 0.350923 0.000000
vt  1.000000 0.350923 0.000000
vt  1.000000 0.350923 0.000000
vt  1.000000 0.350923 0.000000
vt  1.000000 0.000000 0.000000
vt  1.000000 0.000000 0.000000
vt  1.000000 0.000000 0.000000
vt  0.682129 0.000000 0.000000
vt  0.682129 0.000000 0.000000
vt  0.682129 0.000000 0.000000
vt  0.682129 0.350923 0.000000
vt  0.682129 0.350923 0.000000
vt  0.682129 0.350923 0.000000
vt  0.682129 0.747775 0.000000
vt  0.682129 0.747775 0.000000
vt  0.682129 0.747775 0.000000
vt  0.682129 0.747775 0.000000
vt  0.682129 0.747775 0.000000
vt  0.682129 0.747775 0.000000
vt  0.682129 1.000000 0.000000
vt  0.682129 1.000000 0.000000
vt  0.682129 1.000000 0.000000
vt  0.682129 1.000000 0.000000
vt  0.682129 1.000000 0.000000
vt  0.682129 1.000000 0.000000
vt  0.682129 0.747775 0.000000
vt  0.682129 0.747775 0.000000
vt  0.682129 0.747775 0.000000
vt  0.682129 0.747775 0.000000
vt  0.682129 0.747775 0.000000
vt  0.682129 0.747775 0.000000
vt  0.682129 0.350923 0.000000
vt  0.682129 0.350923 0.000000
vt  0.682129 0.350923 0.000000
vt  0.682129 0.350923 0.000000
vt  0.682129 0.350923 0.000000
vt  0.682129 0.350923 0.000000
vt  0.682129 0.747775 0.000000
vt  0.682129 0.747775 0.000000
vt  0.682129 0.747775 0.000000
vt  0.682129 0.747775 0.000000
vt  0.682129 0.747775 0.000000
vt  0.682129 0.747775 0.000000
vt  0.682129 0.350923 0.000000
vt  0.682129 0.350923 0.000000
vt  0.682129 0.350923 0.000000
vt  0.308427 0.747775 0.000000
vt  0.308427 0.747775 0.000000
vt  0.308427 0.747775 0.000000
vt  0.308427 0.747775 0.000000
vt  0.308427 0.747775 0.000000
vt  0.308427 0.747775 0.000000
vt  0.308427 0.350923 0.000000
vt  0.308427 0.350923 0.000000
vt  0.308427 0.350923 0.000000
vt  0.308427 0.350923 0.000000
vt  0.308427 0.350923 0.000000
vt  0.308427 0.350923 0.000000
vt  1.000000 0.350923 0.000000
vt  1.000000 0.350923 0.000000
vt  1.000000 0.350923 0.000000
vt  1.000000 0.350923 0.000000
vt  1.000000 0.350923 0.000000
vt  1.000000 0.350923 0.000000
vt  0.682129 0.350923 0.000000
vt  0.682129 0.350923 0.000000
vt  0.682129 0.350923 0.000000
vt  0.308427 0.350923 0.000000
vt  0.308427 0.350923 0.000000
vt  0.308427 0.350923 0.000000
vt  0.308427 0.350923 0.000000
vt  0.308427 0.350923 0.000000
vt  0.308427 0.350923 0.000000
vt  0.000000 0.350923 0.000000
vt  0.000000 0.350923 0.000000
vt  0.000000 0.350923 0.000000
vt  0.000000 0.350923 0.000000
vt  0.000000 0.350923 0.000000
vt  0.000000 0.350923 0.000000
vt  0.308427 0.350923 0.000000
vt  0.308427 0.350923 0.000000
vt  0.308427 0.350923 0.000000
vt  0.308427 0.350923 0.000000
vt  0.308427 0.350923 0.000000
vt  0.308427 0.350923 0.000000
vt  0.682129 0.350923 0.000000
vt  0.682129 0.350923 0.000000
vt  0.682129 0.350923 0.000000
vt  0.000000 0.000000 0.000000
vt  0.000000 0.000000 0.000000
vt  0.000000 0.000000 0.000000
vt  0.000000 0.000000 0.000000
vt  0.000000 0.000000 0.000000
vt  0.000000 0.000000 0.000000
vt  0.682129 0.000000 0.000000
vt  0.682129 0.000000 0.000000
vt  0.682129 0.000000 0.000000
vt  0.308427 0.000000 0.000000
vt  0.308427 0.000000 0.000000
vt  0.308427 0.000000 0.000000
vt  0.308427 0.000000 0.000000
vt  0.308427 0.000000 0.000000
vt  0.308427 0.000000 0.000000
vt  0.308427 0.000000 0.000000
vt  0.308427 0.000000 0.000000
vt  0.308427 0.000000 0.000000
vt  0.308427 0.000000 0.000000
vt  0.308427 0.000000 0.000000
vt  0.308427 0.000000 0.000000
vt  0.682129 0.000000 0.000000
vt  0.682129 0.000000 0.000000
vt  0.682129 0.000000 0.000000
vt  1.000000 0.747775 0.000000
vt  1.000000 0.747775 0.000000
vt  1.000000 0.747775 0.000000
vt  1.000000 0.747775 0.000000
vt  1.000000 0.747775 0.000000
vt  1.000000 0.747775 0.000000
vt  1.000000 1.000000 0.000000
vt  1.000000 1.000000 0.000000
vt  1.000000 1.000000 0.000000
vt  1.000000 1.000000 0.000000
vt  1.000000 1.000000 0.000000
vt  1.000000 1.000000 0.000000
vt  1.000000 0.747775 0.000000
vt  1.000000 0.747775 0.000000
vt  1.000000 0.747775 0.000000
vt  1.000000 0.747775 0.000000
vt  1.000000 0.747775 0.000000
vt  1.000000 0.747775 0.000000

vn  0.000000 0.000000 -1.000000
vn  0.000000 1.000000 0.000000
vn  1.000000 0.000000 0.000000
vn  0.000000 0.000000 -1.000000
vn  0.000000 -1.000000 0.000000
vn  1.000000 0.000000 0.000000
vn  0.000000 0.000000 -1.000000
vn  0.000000 -1.000000 0.000000
vn  1.000000 0.000000 0.000000
vn  0.000000 0.000000 -1.000000
vn  0.000000 1.000000 0.000000
vn  1.000000 0.000000 0.000000
vn  0.000000 0.000000 1.000000
vn  0.000000 1.000000 0.000000
vn  1.000000 0.000000 0.000000
vn  0.000000 0.000000 1.000000
vn  0.000000 1.000000 0.000000
vn  1.000000 0.000000 0.000000
vn  0.000000 0.000000 1.000000
vn  0.000000 -1.000000 0.000000
vn  1.000000 0.000000 0.000000
vn  0.000000 0.000000 1.000000
vn  0.000000 -1.000000 0.000000
vn  1.000000 0.000000 0.000000
vn  -1.000000 0.000000 0.000000
vn  0.000000 1.000000 0.000000
vn  0.000000 0.000000 -1.000000
vn  -1.000000 0.000000 0.000000
vn  0.000000 1.000000 0.000000
vn  0.000000 0.000000 -1.000000
vn  -1.000000 0.000000 0.000000
vn  0.000000 0.000000 -1.000000
vn  0.000000 1.000000 0.000000
vn  -1.000000 0.000000 0.000000
vn  0.000000 1.000000 0.000000
vn  0.000000 0.000000 -1.000000
vn  -1.000000 0.000000 0.000000
vn  0.000000 1.000000 0.000000
vn  0.000000 0.000000 1.000000
vn  -1.000000 0.000000 0.000000
vn  0.000000 0.000000 1.000000
vn  0.000000 1.000000 0.000000
vn  -1.000000 0.000000 0.000000
vn  0.000000 1.000000 0.000000
vn  0.000000 0.000000 1.000000
vn  -1.000000 0.000000 0.000000
vn  0.000000 1.000000 0.000000
vn  0.000000 0.000000 1.000000
vn  -1.000000 0.000000 0.000000
vn  0.000000 1.000000 0.000000
vn  0.000000 0.000000 1.000000
vn  -1.000000 0.000000 0.000000
vn  0.000000 1.000000 0.000000
vn  0.000000 0.000000 1.000000
vn  -1.000000 0.000000 0.000000
vn  0.000000 1.000000 0.000000
vn  0.000000 0.000000 -1.000000
vn  -1.000000 0.000000 0.000000
vn  0.000000 1.000000 0.000000
vn  0.000000 0.000000 -1.000000
vn  0.000000 1.000000 0.000000
vn  -1.000000 0.000000 0.000000
vn  0.000000 0.000000 1.000000
vn  0.000000 1.000000 0.000000
vn  -1.000000 0.000000 0.000000
vn  0.000000 0.000000 -1.000000
vn  -1.000000 0.000000 0.000000
vn  0.000000 1.000000 0.000000
vn  0.000000 0.000000 1.000000
vn  -1.000000 0.000000 0.000000
vn  0.000000 1.000000 0.000000
vn  0.000000 0.000000 -1.000000
vn  0.000000 1.000000 0.000000
vn  1.000000 0.000000 0.000000
vn  0.000000 0.000000 -1.000000
vn  0.000000 1.000000 0.000000
vn  1.000000 0.000000 0.000000
vn  0.000000 0.000000 1.000000
vn  0.000000 1.000000 0.000000
vn  0.000000 0.000000 1.000000
vn  1.000000 0.000000 0.000000
vn  0.000000 1.000000 0.000000
vn  -1.000000 0.000000 0.000000
vn  0.000000 0.000000 1.000000
vn  0.000000 1.000000 0.000000
vn  0.000000 0.000000 1.000000
vn  -1.000000 0.000000 0.000000
vn  0.000000 1.000000 0.000000
vn  -1.000000 -0.000000 0.000000
vn  0.000000 0.000000 1.000000
vn  0.000000 1.000000 0.000000
vn  -1.000000 -0.000000 0.000000
vn  0.000000 0.000000 -1.000000
vn  0.000000 1.000000 0.000000
vn  0.000000 0.000000 -1.000000
vn  -1.000000 0.000000 0.000000
vn  0.000000 1.000000 0.000000
vn  -1.000000 0.000000 0.000000
vn  0.000000 0.000000 -1.000000
vn  0.000000 1.000000 0.000000
vn  0.000000 0.000000 -1.000000
vn  1.000000 0.000000 0.000000
vn  -1.000000 -0.000000 0.000000
vn  0.000000 -1.000000 0.000000
vn  0.000000 0.000000 1.000000
vn  -1.000000 -0.000000 0.000000
vn  0.000000 -1.000000 0.000000
vn  0.000000 0.000000 -1.000000
vn  0.000000 -1.000000 0.000000
vn  0.000000 0.000000 -1.000000
vn  1.000000 0.000000 0.000000
vn  0.000000 -1.000000 0.000000
vn  -1.000000 0.000000 0.000000
vn  0.000000 0.000000 -1.000000
vn  0.000000 -1.000000 0.000000
vn  0.000000 0.000000 -1.000000
vn  -1.000000 0.000000 0.000000
vn  0.000000 -1.000000 0.000000
vn  0.000000 0.000000 1.000000
vn  -1.000000 0.000000 0.000000
vn  0.000000 -1.000000 0.000000
vn  -1.000000 0.000000 0.000000
vn  0.000000 0.000000 1.000000
vn  0.000000 -1.000000 0.000000
vn  0.000000 0.000000 1.000000
vn  1.000000 0.000000 0.000000
vn  1.000000 0.000000 0.000000
vn  0.000000 1.000000 0.000000
vn  0.000000 0.000000 1.000000
vn  1.000000 0.000000 0.000000
vn  0.000000 0.000000 1.000000
vn  0.000000 1.000000 0.000000
vn  1.000000 0.000000 0.000000
vn  0.000000 1.000000 0.000000
vn  0.000000 0.000000 1.000000
vn  1.000000 0.000000 0.000000
vn  0.000000 1.000000 0.000000
vn  0.000000 0.000000 -1.000000
vn  1.000000 0.000000 0.000000
vn  0.000000 0.000000 -1.000000
vn  0.000000 1.000000 0.000000
vn  1.000000 0.000000 0.000000
vn  0.000000 1.000000 0.000000
vn  0.000000 0.000000 -1.000000


g 0
g 1
usemtl DEFAULT_MTL
f 7/7/7  4/4/4  1/1/1
f 102/102/102  3/3/3  6/6/6
f 10/10/10  7/7/7  1/1/1
f 73/73/73  11/11/11  2/2/2
f 73/73/73  2/2/2  26/26/26
f 97/97/97  26/26/26  2/2/2
f 100/100/100  97/97/97  2/2/2
f 23/23/23  5/5/5  8/8/8
f 121/121/121  5/5/5  23/23/23
f 111/111/111  102/102/102  6/6/6
f 121/121/121  109/109/109  5/5/5
f 21/21/21  9/9/9  12/12/12
f 23/23/23  8/8/8  20/20/20
f 74/74/74  21/21/21  12/12/12
f 22/22/22  16/16/16  13/13/13
f 47/47/47  14/14/14  17/17/17
f 126/126/126  24/24/24  15/15/15
f 68/68/68  14/14/14  47/47/47
f 79/79/79  14/14/14  68/68/68
f 126/126/126  15/15/15  81/81/81
f 22/22/22  19/19/19  16/16/16
f 77/77/77  18/18/18  21/21/21
f 76/76/76  47/47/47  17/17/17
f 77/77/77  21/21/21  74/74/74
f 124/124/124  121/121/121  23/23/23
f 31/31/31  28/28/28  25/25/25
f 75/75/75  27/27/27  30/30/30
f 55/55/55  31/31/31  25/25/25
f 58/58/58  55/55/55  25/25/25
f 97/97/97  59/59/59  26/26/26
f 141/141/141  29/29/29  33/33/33
f 144/144/144  75/75/75  30/30/30
f 143/143/143  29/29/29  141/141/141
f 37/37/37  34/34/34  31/31/31
f 138/138/138  32/32/32  36/36/36
f 55/55/55  37/37/37  31/31/31
f 140/140/140  32/32/32  138/138/138
f 134/134/134  35/35/35  38/38/38
f 137/137/137  35/35/35  134/134/134
f 52/52/52  40/40/40  37/37/37
f 131/131/131  39/39/39  41/41/41
f 55/55/55  52/52/52  37/37/37
f 135/135/135  39/39/39  131/131/131
f 49/49/49  43/43/43  40/40/40
f 128/128/128  42/42/42  44/44/44
f 52/52/52  49/49/49  40/40/40
f 132/132/132  42/42/42  128/128/128
f 49/49/49  46/46/46  43/43/43
f 129/129/129  45/45/45  48/48/48
f 68/68/68  47/47/47  50/50/50
f 129/129/129  48/48/48  78/78/78
f 69/69/69  51/51/51  54/54/54
f 64/64/64  53/53/53  56/56/56
f 64/64/64  61/61/61  53/53/53
f 69/69/69  54/54/54  63/63/63
f 66/66/66  57/57/57  60/60/60
f 72/72/72  66/66/66  60/60/60
f 94/94/94  71/71/71  59/59/59
f 97/97/97  94/94/94  59/59/59
f 70/70/70  62/62/62  65/65/65
f 70/70/70  67/67/67  62/62/62
f 91/91/91  68/68/68  71/71/71
f 85/85/85  79/79/79  68/68/68
f 91/91/91  85/85/85  68/68/68
f 94/94/94  91/91/91  71/71/71
f 142/142/142  77/77/77  74/74/74
f 130/130/130  127/127/127  77/77/77
f 139/139/139  130/130/130  77/77/77
f 142/142/142  139/139/139  77/77/77
f 85/85/85  82/82/82  79/79/79
f 125/125/125  80/80/80  84/84/84
f 120/120/120  83/83/83  87/87/87
f 122/122/122  83/83/83  120/120/120
f 125/125/125  84/84/84  123/123/123
f 91/91/91  88/88/88  85/85/85
f 105/105/105  86/86/86  90/90/90
f 119/119/119  86/86/86  105/105/105
f 106/106/106  89/89/89  92/92/92
f 106/106/106  103/103/103  89/89/89
f 116/116/116  93/93/93  95/95/95
f 116/116/116  108/108/108  93/93/93
f 113/113/113  96/96/96  98/98/98
f 117/117/117  96/96/96  113/113/113
f 114/114/114  99/99/99  101/101/101
f 114/114/114  101/101/101  110/110/110
f 115/115/115  104/104/104  107/107/107
f 118/118/118  104/104/104  115/115/115
f 115/115/115  112/112/112  109/109/109
f 118/118/118  115/115/115  109/109/109
f 121/121/121  118/118/118  109/109/109
f 136/136/136  133/133/133  130/130/130
f 139/139/139  136/136/136  130/130/130
