mtllib requirement.mtl

v  74.179753 50.000000 -25.000000
v  74.179753 50.000000 -25.000000
v  74.179753 50.000000 -25.000000
v  -74.179753 17.574237 -25.000000
v  -74.179753 17.574237 -25.000000
v  -74.179753 17.574237 -25.000000
v  -74.179753 -50.000000 -25.000000
v  -74.179753 -50.000000 -25.000000
v  -74.179753 -50.000000 -25.000000
v  74.179753 -17.574237 -25.000000
v  74.179753 -17.574237 -25.000000
v  74.179753 -17.574237 -25.000000
v  74.179753 50.000000 25.000000
v  74.179753 50.000000 25.000000
v  74.179753 50.000000 25.000000
v  74.179753 -17.574237 25.000000
v  74.179753 -17.574237 25.000000
v  74.179753 -17.574237 25.000000
v  -74.179753 -50.000000 25.000000
v  -74.179753 -50.000000 25.000000
v  -74.179753 -50.000000 25.000000
v  -74.179753 17.574237 25.000000
v  -74.179753 17.574237 25.000000
v  -74.179753 17.574237 25.000000

vt  1.000000 1.000000 0.000000
vt  1.000000 1.000000 0.000000
vt  1.000000 1.000000 0.000000
vt  0.000000 0.675742 0.000000
vt  0.000000 0.675742 0.000000
vt  0.000000 0.675742 0.000000
vt  0.000000 0.000000 0.000000
vt  0.000000 0.000000 0.000000
vt  0.000000 0.000000 0.000000
vt  1.000000 0.324258 0.000000
vt  1.000000 0.324258 0.000000
vt  1.000000 0.324258 0.000000
vt  1.000000 1.000000 0.000000
vt  1.000000 1.000000 0.000000
vt  1.000000 1.000000 0.000000
vt  1.000000 0.324258 0.000000
vt  1.000000 0.324258 0.000000
vt  1.000000 0.324258 0.000000
vt  0.000000 0.000000 0.000000
vt  0.000000 0.000000 0.000000
vt  0.000000 0.000000 0.000000
vt  0.000000 0.675742 0.000000
vt  0.000000 0.675742 0.000000
vt  0.000000 0.675742 0.000000

vn  0.000000 0.000000 -1.000000
vn  -0.213522 0.976938 0.000000
vn  1.000000 0.000000 0.000000
vn  0.000000 0.000000 -1.000000
vn  -0.213522 0.976938 0.000000
vn  -1.000000 0.000000 0.000000
vn  0.000000 0.000000 -1.000000
vn  -1.000000 0.000000 0.000000
vn  0.213522 -0.976938 0.000000
vn  0.000000 0.000000 -1.000000
vn  0.213522 -0.976938 0.000000
vn  1.000000 0.000000 0.000000
vn  0.000000 0.000000 1.000000
vn  -0.213522 0.976938 0.000000
vn  1.000000 0.000000 0.000000
vn  0.000000 0.000000 1.000000
vn  0.213522 -0.976938 0.000000
vn  1.000000 0.000000 0.000000
vn  0.000000 0.000000 1.000000
vn  -1.000000 0.000000 0.000000
vn  0.213522 -0.976938 0.000000
vn  0.000000 0.000000 1.000000
vn  -0.213522 0.976938 0.000000
vn  -1.000000 0.000000 0.000000


g 0
g 1
usemtl DEFAULT_MTL
f 7/7/7  4/4/4  1/1/1
f 14/14/14  2/2/2  5/5/5
f 10/10/10  7/7/7  1/1/1
f 18/18/18  12/12/12  3/3/3
f 18/18/18  3/3/3  15/15/15
f 24/24/24  6/6/6  8/8/8
f 23/23/23  14/14/14  5/5/5
f 21/21/21  9/9/9  11/11/11
f 24/24/24  8/8/8  20/20/20
f 21/21/21  11/11/11  17/17/17
f 22/22/22  16/16/16  13/13/13
f 22/22/22  19/19/19  16/16/16
