mtllib systemsoftware.mtl

v  -75.000000 -50.000000 -32.000000
v  -75.000000 -50.000000 -32.000000
v  -75.000000 -50.000000 -32.000000
v  75.000000 -50.000000 -32.000000
v  75.000000 -50.000000 -32.000000
v  75.000000 -50.000000 -32.000000
v  75.000000 50.000000 -32.000000
v  75.000000 50.000000 -32.000000
v  75.000000 50.000000 -32.000000
v  -75.000000 50.000000 -32.000000
v  -75.000000 50.000000 -32.000000
v  -75.000000 50.000000 -32.000000
v  -75.000000 50.000000 32.000000
v  -75.000000 50.000000 32.000000
v  -75.000000 50.000000 32.000000
v  -75.000000 -50.000000 32.000000
v  -75.000000 -50.000000 32.000000
v  -75.000000 -50.000000 32.000000
v  75.000000 50.000000 32.000000
v  75.000000 50.000000 32.000000
v  75.000000 50.000000 32.000000
v  75.000000 -50.000000 32.000000
v  75.000000 -50.000000 32.000000
v  75.000000 -50.000000 32.000000
v  64.486089 31.075614 32.000000
v  64.486089 31.075614 32.000000
v  64.486089 31.075614 32.000000
v  63.037400 36.480386 32.000000
v  63.037400 36.480386 32.000000
v  59.081075 40.437374 32.000000
v  59.081075 40.437374 32.000000
v  53.676060 41.885157 32.000000
v  53.676060 41.885157 32.000000
v  48.271046 40.437374 32.000000
v  48.271046 40.437374 32.000000
v  44.314721 36.480386 32.000000
v  44.314721 36.480386 32.000000
v  42.866031 31.075614 32.000000
v  42.866031 31.075614 32.000000
v  42.866031 31.075614 32.000000
v  44.314721 25.670842 32.000000
v  44.314721 25.670842 32.000000
v  48.271046 21.713854 32.000000
v  48.271046 21.713854 32.000000
v  53.676060 20.266070 32.000000
v  53.676060 20.266070 32.000000
v  59.081075 21.713854 32.000000
v  59.081075 21.713854 32.000000
v  63.037400 25.670842 32.000000
v  63.037400 25.670842 32.000000
v  64.486089 31.075614 46.300000
v  64.486089 31.075614 46.300000
v  64.486089 31.075614 46.300000
v  63.038140 25.672163 46.300000
v  63.038140 25.672163 46.300000
v  59.079511 21.713534 46.300000
v  59.079511 21.713534 46.300000
v  53.676060 20.265585 46.300000
v  53.676060 20.265585 46.300000
v  48.272610 21.713534 46.300000
v  48.272610 21.713534 46.300000
v  44.313981 25.672163 46.300000
v  44.313981 25.672163 46.300000
v  42.866031 31.075614 46.300000
v  42.866031 31.075614 46.300000
v  42.866031 31.075614 46.300000
v  44.313981 36.479064 46.300000
v  44.313981 36.479064 46.300000
v  48.272610 40.437693 46.300000
v  48.272610 40.437693 46.300000
v  53.676060 41.885643 46.300000
v  53.676060 41.885643 46.300000
v  59.079511 40.437693 46.300000
v  59.079511 40.437693 46.300000
v  63.038140 36.479064 46.300000
v  63.038140 36.479064 46.300000

vt  0.000000 0.000000 0.000000
vt  0.000000 0.000000 0.000000
vt  0.000000 0.000000 0.000000
vt  0.384867 0.000000 0.000000
vt  0.384867 0.000000 0.000000
vt  0.384867 0.000000 0.000000
vt  0.615133 0.000000 0.000000
vt  0.615133 0.000000 0.000000
vt  0.615133 0.000000 0.000000
vt  1.000000 0.000000 0.000000
vt  1.000000 0.000000 0.000000
vt  1.000000 0.000000 0.000000
vt  1.000000 0.633960 0.000000
vt  1.000000 0.633960 0.000000
vt  1.000000 0.633960 0.000000
vt  0.000000 0.633960 0.000000
vt  0.000000 0.633960 0.000000
vt  0.000000 0.633960 0.000000
vt  0.615133 0.633960 0.000000
vt  0.615133 0.633960 0.000000
vt  0.615133 0.633960 0.000000
vt  0.384867 0.633960 0.000000
vt  0.384867 0.633960 0.000000
vt  0.384867 0.633960 0.000000
vt  0.587927 0.707604 0.000000
vt  0.587927 0.707604 0.000000
vt  0.587927 0.707604 0.000000
vt  0.602722 0.701649 0.000000
vt  0.602722 0.701649 0.000000
vt  0.617522 0.707549 0.000000
vt  0.617522 0.707549 0.000000
vt  0.629745 0.725241 0.000000
vt  0.629745 0.725241 0.000000
vt  0.636537 0.753862 0.000000
vt  0.636537 0.753862 0.000000
vt  0.634856 0.789562 0.000000
vt  0.634856 0.789562 0.000000
vt  0.622822 0.822142 0.000000
vt  0.622822 0.822142 0.000000
vt  0.622822 0.822142 0.000000
vt  0.602806 0.835928 0.000000
vt  0.602806 0.835928 0.000000
vt  0.582769 0.822260 0.000000
vt  0.582769 0.822260 0.000000
vt  0.570688 0.789729 0.000000
vt  0.570688 0.789729 0.000000
vt  0.568962 0.754014 0.000000
vt  0.568962 0.754014 0.000000
vt  0.575722 0.725349 0.000000
vt  0.575722 0.725349 0.000000
vt  0.587927 0.850459 0.000000
vt  0.587927 0.850459 0.000000
vt  0.587927 0.850459 0.000000
vt  0.575725 0.872028 0.000000
vt  0.575725 0.872028 0.000000
vt  0.568963 0.906293 0.000000
vt  0.568963 0.906293 0.000000
vt  0.570686 0.947897 0.000000
vt  0.570686 0.947897 0.000000
vt  0.582765 0.984775 0.000000
vt  0.582765 0.984775 0.000000
vt  0.602812 1.000000 0.000000
vt  0.602812 1.000000 0.000000
vt  0.622822 0.984654 0.000000
vt  0.622822 0.984654 0.000000
vt  0.622822 0.984654 0.000000
vt  0.634854 0.947715 0.000000
vt  0.634854 0.947715 0.000000
vt  0.636535 0.906092 0.000000
vt  0.636535 0.906092 0.000000
vt  0.629746 0.871904 0.000000
vt  0.629746 0.871904 0.000000
vt  0.617525 0.850399 0.000000
vt  0.617525 0.850399 0.000000
vt  0.602718 0.843156 0.000000
vt  0.602718 0.843156 0.000000

vn  0.000000 0.000000 -1.000000
vn  -1.000000 0.000000 0.000000
vn  0.000000 -1.000000 0.000000
vn  0.000000 0.000000 -1.000000
vn  1.000000 0.000000 0.000000
vn  0.000000 -1.000000 0.000000
vn  0.000000 0.000000 -1.000000
vn  0.000000 1.000000 0.000000
vn  1.000000 0.000000 0.000000
vn  0.000000 0.000000 -1.000000
vn  -1.000000 0.000000 0.000000
vn  0.000000 1.000000 0.000000
vn  -1.000000 0.000000 0.000000
vn  0.000000 1.000000 0.000000
vn  0.000000 0.000000 1.000000
vn  -1.000000 0.000000 0.000000
vn  0.000000 -1.000000 0.000000
vn  0.000000 0.000000 1.000000
vn  0.000000 1.000000 0.000000
vn  1.000000 0.000000 0.000000
vn  0.000000 0.000000 1.000000
vn  1.000000 0.000000 0.000000
vn  0.000000 -1.000000 0.000000
vn  0.000000 0.000000 1.000000
vn  0.000000 0.000000 1.000000
vn  1.000000 0.000000 0.000000
vn  1.000000 -0.000000 0.000000
vn  0.000000 0.000000 1.000000
vn  0.866025 0.500000 0.000000
vn  0.000000 0.000000 1.000000
vn  0.500000 0.866025 0.000000
vn  0.000000 0.000000 1.000000
vn  0.000000 1.000000 0.000000
vn  0.000000 0.000000 1.000000
vn  -0.500000 0.866025 0.000000
vn  0.000000 0.000000 1.000000
vn  -0.866025 0.500000 0.000000
vn  0.000000 0.000000 1.000000
vn  -1.000000 0.000000 0.000000
vn  -1.000000 0.000000 0.000000
vn  0.000000 0.000000 1.000000
vn  -0.866025 -0.500000 0.000000
vn  0.000000 0.000000 1.000000
vn  -0.500000 -0.866025 0.000000
vn  0.000000 0.000000 1.000000
vn  -0.000000 -1.000000 0.000000
vn  0.000000 0.000000 1.000000
vn  0.500000 -0.866025 0.000000
vn  0.000000 0.000000 1.000000
vn  0.866025 -0.500000 0.000000
vn  0.000000 0.000000 1.000000
vn  1.000000 0.000000 0.000000
vn  1.000000 -0.000000 0.000000
vn  0.000000 0.000000 1.000000
vn  0.866025 -0.500000 0.000000
vn  0.000000 0.000000 1.000000
vn  0.500000 -0.866025 0.000000
vn  0.000000 0.000000 1.000000
vn  -0.000000 -1.000000 0.000000
vn  0.000000 0.000000 1.000000
vn  -0.500000 -0.866025 0.000000
vn  0.000000 0.000000 1.000000
vn  -0.866025 -0.500000 0.000000
vn  0.000000 0.000000 1.000000
vn  -1.000000 0.000000 0.000000
vn  -1.000000 0.000000 0.000000
vn  0.000000 0.000000 1.000000
vn  -0.866025 0.500000 0.000000
vn  0.000000 0.000000 1.000000
vn  -0.500000 0.866025 0.000000
vn  0.000000 0.000000 1.000000
vn  0.000000 1.000000 0.000000
vn  0.000000 0.000000 1.000000
vn  0.500000 0.866025 0.000000
vn  0.000000 0.000000 1.000000
vn  0.866025 0.500000 0.000000


g 0
g 1
usemtl DEFAULT_MTL
f 7/7/7  4/4/4  1/1/1
f 17/17/17  3/3/3  6/6/6
f 10/10/10  7/7/7  1/1/1
f 13/13/13  11/11/11  2/2/2
f 16/16/16  13/13/13  2/2/2
f 22/22/22  5/5/5  9/9/9
f 23/23/23  17/17/17  6/6/6
f 19/19/19  8/8/8  12/12/12
f 22/22/22  9/9/9  20/20/20
f 19/19/19  12/12/12  14/14/14
f 24/24/24  15/15/15  18/18/18
f 32/32/32  21/21/21  15/15/15
f 41/41/41  15/15/15  24/24/24
f 34/34/34  32/32/32  15/15/15
f 36/36/36  34/34/34  15/15/15
f 38/38/38  36/36/36  15/15/15
f 41/41/41  38/38/38  15/15/15
f 25/25/25  24/24/24  21/21/21
f 28/28/28  25/25/25  21/21/21
f 30/30/30  28/28/28  21/21/21
f 32/32/32  30/30/30  21/21/21
f 49/49/49  24/24/24  25/25/25
f 43/43/43  41/41/41  24/24/24
f 45/45/45  43/43/43  24/24/24
f 47/47/47  45/45/45  24/24/24
f 49/49/49  47/47/47  24/24/24
f 52/52/52  26/26/26  29/29/29
f 55/55/55  50/50/50  27/27/27
f 55/55/55  27/27/27  53/53/53
f 76/76/76  29/29/29  31/31/31
f 76/76/76  52/52/52  29/29/29
f 74/74/74  31/31/31  33/33/33
f 76/76/76  31/31/31  74/74/74
f 72/72/72  33/33/33  35/35/35
f 74/74/74  33/33/33  72/72/72
f 70/70/70  35/35/35  37/37/37
f 72/72/72  35/35/35  70/70/70
f 68/68/68  37/37/37  39/39/39
f 70/70/70  37/37/37  68/68/68
f 66/66/66  40/40/40  42/42/42
f 68/68/68  39/39/39  65/65/65
f 63/63/63  42/42/42  44/44/44
f 66/66/66  42/42/42  63/63/63
f 61/61/61  44/44/44  46/46/46
f 63/63/63  44/44/44  61/61/61
f 59/59/59  46/46/46  48/48/48
f 61/61/61  46/46/46  59/59/59
f 57/57/57  48/48/48  50/50/50
f 59/59/59  48/48/48  57/57/57
f 57/57/57  50/50/50  55/55/55
f 75/75/75  54/54/54  51/51/51
f 73/73/73  56/56/56  54/54/54
f 75/75/75  73/73/73  54/54/54
f 71/71/71  58/58/58  56/56/56
f 73/73/73  71/71/71  56/56/56
f 69/69/69  60/60/60  58/58/58
f 71/71/71  69/69/69  58/58/58
f 67/67/67  62/62/62  60/60/60
f 69/69/69  67/67/67  60/60/60
f 67/67/67  64/64/64  62/62/62
